<svg width="90" height="84" viewBox="0 0 90 84" fill="none" xmlns="http://www.w3.org/2000/svg">
<g filter="url(#filter0_i_385_38)">
<path fill-rule="evenodd" clip-rule="evenodd" d="M38.7211 0.154895L39.0793 0.234737C41.2272 0.810266 42.5478 2.93214 42.1644 5.08165L42.0845 5.4399L37.8729 21.1555L44.9979 33.4981L52.1271 21.1555L47.9155 5.4399C47.308 3.17267 48.6535 0.84224 50.9207 0.234737C53.0686 -0.340791 55.2732 0.836491 56.0159 2.88977L56.1259 3.23994L58.1377 10.7449L61.5069 4.90931C62.6805 2.87657 65.2798 2.1801 67.3125 3.35371C69.2528 4.47397 69.9756 6.89322 69.0166 8.8788L68.8681 9.15931L65.4989 14.9949L73.0043 12.9847C75.1522 12.4092 77.3569 13.5865 78.0995 15.6398L78.2095 15.9899C78.785 18.1378 77.6078 20.3425 75.5545 21.0851L75.2043 21.1951L59.4884 25.4055L52.361 37.7481L66.6134 37.7501L78.1198 26.2449C79.7795 24.5852 82.4705 24.5852 84.1302 26.2449C85.7026 27.8173 85.7853 30.3152 84.3785 31.985L84.1302 32.2553L78.6345 37.7501H85.375C87.7222 37.7501 89.625 39.6529 89.625 42.0001C89.625 44.2406 87.8913 46.0762 85.6922 46.2384L85.375 46.2501H78.6345L84.1302 51.7449C85.7026 53.3173 85.7853 55.8152 84.3785 57.485L84.1302 57.7553C82.5578 59.3277 80.0599 59.4104 78.3901 58.0036L78.1198 57.7553L66.6134 46.2501L52.3589 46.2481L59.4873 58.5928L75.2043 62.8051C77.4715 63.4126 78.817 65.743 78.2095 68.0102C77.634 70.1581 75.5121 71.4788 73.3626 71.0953L73.0043 71.0154L65.4979 69.0034L68.8681 74.8409C70.0417 76.8736 69.3452 79.4729 67.3125 80.6465C65.3722 81.7667 62.9156 81.1831 61.6756 79.3597L61.5069 79.0909L58.1366 73.2534L56.1259 80.7602C55.5503 82.9081 53.4285 84.2288 51.2789 83.8453L50.9207 83.7654C48.7728 83.1899 47.4522 81.068 47.8356 78.9185L47.9155 78.5603L52.1261 62.8428L44.9979 50.5002L37.8739 62.8428L42.0845 78.5603C42.692 80.8275 41.3465 83.1579 39.0793 83.7654C36.9314 84.341 34.7268 83.1637 33.9841 81.1104L33.8741 80.7602L31.8634 73.2534L28.4931 79.0909C27.3195 81.1236 24.7202 81.8201 22.6875 80.6465C20.7472 79.5262 20.0244 77.107 20.9834 75.1214L21.1319 74.8409L24.5021 69.0034L16.9957 71.0154C14.8478 71.591 12.6431 70.4137 11.9005 68.3604L11.7905 68.0102C11.215 65.8623 12.3922 63.6577 14.4455 62.9151L14.7957 62.8051L30.5127 58.5928L37.639 46.2481L23.3845 46.2501L11.8802 57.7553C10.2205 59.415 7.52952 59.415 5.8698 57.7553C4.29742 56.1829 4.21467 53.685 5.62153 52.0152L5.8698 51.7449L11.3634 46.2501H4.625C2.27779 46.2501 0.375 44.3473 0.375 42.0001C0.375 39.7596 2.10874 37.924 4.30782 37.7617L4.625 37.7501H11.3634L5.8698 32.2553C4.29742 30.6829 4.21467 28.185 5.62153 26.5152L5.8698 26.2449C7.44217 24.6725 9.94007 24.5898 11.6099 25.9966L11.8802 26.2449L23.3845 37.7501L37.6369 37.7481L30.5116 25.4055L14.7957 21.1951C12.5285 20.5876 11.183 18.2572 11.7905 15.9899C12.366 13.842 14.4879 12.5214 16.6374 12.9049L16.9957 12.9847L24.5011 14.9949L21.1319 9.15931C19.9583 7.12657 20.6548 4.52731 22.6875 3.35371C24.6278 2.23345 27.0844 2.81712 28.3244 4.64045L28.4931 4.90931L31.8623 10.7449L33.8741 3.23994C34.4497 1.09204 36.5715 -0.228583 38.7211 0.154895Z" fill="url(#paint0_linear_385_38)"/>
</g>
<defs>
<filter id="filter0_i_385_38" x="0.375" y="0.0888672" width="89.25" height="85.8225" filterUnits="userSpaceOnUse" color-interpolation-filters="sRGB">
<feFlood flood-opacity="0" result="BackgroundImageFix"/>
<feBlend mode="normal" in="SourceGraphic" in2="BackgroundImageFix" result="shape"/>
<feColorMatrix in="SourceAlpha" type="matrix" values="0 0 0 0 0 0 0 0 0 0 0 0 0 0 0 0 0 0 127 0" result="hardAlpha"/>
<feOffset dy="2"/>
<feGaussianBlur stdDeviation="4"/>
<feComposite in2="hardAlpha" operator="arithmetic" k2="-1" k3="1"/>
<feColorMatrix type="matrix" values="0 0 0 0 0.831313 0 0 0 0 0.98288 0 0 0 0 0.98288 0 0 0 1 0"/>
<feBlend mode="normal" in2="shape" result="effect1_innerShadow_385_38"/>
</filter>
<linearGradient id="paint0_linear_385_38" x1="0.375" y1="0.0888672" x2="0.375" y2="83.9113" gradientUnits="userSpaceOnUse">
<stop stop-color="#8FD5FF"/>
<stop offset="1" stop-color="#4CAFFF"/>
</linearGradient>
</defs>
</svg>
