<svg width="102" height="102" viewBox="0 0 102 102" fill="none" xmlns="http://www.w3.org/2000/svg">
<g filter="url(#filter0_i_663_42)">
<path d="M87.4453 94.125C86.2717 96.1577 83.6724 96.8543 81.6396 95.6807C79.6069 94.5071 78.9104 91.9077 80.084 89.875C86.8235 78.2014 87.3937 64.6606 82.8096 53.0234C82.4586 58.6268 80.6619 63.8376 77.7852 68.2861C77.7155 68.4529 77.6348 68.6176 77.542 68.7783C63.4587 93.171 32.2678 101.528 7.875 87.4453C5.84226 86.2717 5.14573 83.6724 6.31934 81.6396C7.49298 79.607 10.0923 78.9104 12.125 80.084C23.799 86.8239 37.341 87.3952 48.9785 82.8105C43.3742 82.4598 38.163 80.6615 33.7139 77.7842C33.5473 77.7146 33.3822 77.6347 33.2217 77.542C8.82916 63.4586 0.471597 32.2677 14.5547 7.875C15.7283 5.84229 18.3276 5.14581 20.3604 6.31934C22.3931 7.49294 23.0896 10.0923 21.916 12.125C15.1761 23.7989 14.6069 37.3401 19.1914 48.9775C19.5423 43.3742 21.3392 38.1643 24.2158 33.7158C24.2856 33.5488 24.3651 33.3836 24.458 33.2227C38.5412 8.82985 69.7321 0.471697 94.125 14.5547C96.1577 15.7283 96.8541 18.3276 95.6807 20.3604C94.5071 22.3931 91.9077 23.0896 89.875 21.916C78.2014 15.1764 64.6606 14.6073 53.0234 19.1914C58.6271 19.5425 63.8375 21.3397 68.2861 24.2168C68.4525 24.2863 68.617 24.3655 68.7773 24.458C93.1701 38.5412 101.528 69.7321 87.4453 94.125ZM51 74.375C63.9096 74.375 74.375 63.9096 74.375 51C74.3749 38.0905 63.9096 27.625 51 27.625C38.0904 27.625 27.6251 38.0904 27.625 51C27.625 63.9097 38.0903 74.375 51 74.375ZM51 63.75C43.9584 63.75 38.25 58.0416 38.25 51C38.2501 43.9585 43.9584 38.25 51 38.25C58.0415 38.25 63.7499 43.9585 63.75 51C63.75 58.0416 58.0416 63.75 51 63.75ZM51 55.25C53.3472 55.25 55.25 53.3472 55.25 51C55.2499 48.6529 53.3471 46.75 51 46.75C48.6529 46.75 46.7501 48.6529 46.75 51C46.75 53.3472 48.6528 55.25 51 55.25Z" fill="url(#paint0_linear_663_42)"/>
</g>
<defs>
<filter id="filter0_i_663_42" x="5.74927" y="5.74951" width="90.5013" height="92.5015" filterUnits="userSpaceOnUse" color-interpolation-filters="sRGB">
<feFlood flood-opacity="0" result="BackgroundImageFix"/>
<feBlend mode="normal" in="SourceGraphic" in2="BackgroundImageFix" result="shape"/>
<feColorMatrix in="SourceAlpha" type="matrix" values="0 0 0 0 0 0 0 0 0 0 0 0 0 0 0 0 0 0 127 0" result="hardAlpha"/>
<feOffset dy="2"/>
<feGaussianBlur stdDeviation="4"/>
<feComposite in2="hardAlpha" operator="arithmetic" k2="-1" k3="1"/>
<feColorMatrix type="matrix" values="0 0 0 0 0.831313 0 0 0 0 0.98288 0 0 0 0 0.98288 0 0 0 1 0"/>
<feBlend mode="normal" in2="shape" result="effect1_innerShadow_663_42"/>
</filter>
<linearGradient id="paint0_linear_663_42" x1="96.251" y1="96.251" x2="96.251" y2="5.74948" gradientUnits="userSpaceOnUse">
<stop stop-color="#8FD5FF"/>
<stop offset="1" stop-color="#4CAFFF"/>
</linearGradient>
</defs>
</svg>
