<svg width="102" height="102" viewBox="0 0 102 102" fill="none" xmlns="http://www.w3.org/2000/svg">
<g filter="url(#filter0_i_664_55)">
<path d="M19.8604 86.8604C21.1142 85.0165 23.5629 84.4693 25.4688 85.5508L25.7646 85.7354C29.0714 87.984 35.4008 89.25 44.625 89.25C48.1326 89.25 51.2372 89.0685 53.9326 88.71C56.2593 88.4004 58.3965 90.0356 58.7061 92.3623C59.0156 94.689 57.3804 96.8262 55.0537 97.1357C51.9627 97.5469 48.4886 97.75 44.625 97.75C33.8494 97.75 26.0119 96.1826 20.9854 92.7646C19.0445 91.4448 18.5407 88.8013 19.8604 86.8604ZM65.875 85C68.2222 85 70.125 86.9028 70.125 89.25C70.125 91.5972 68.2222 93.5 65.875 93.5C63.5278 93.5 61.625 91.5972 61.625 89.25C61.625 86.9028 63.5278 85 65.875 85ZM14.875 74.375C17.2222 74.375 19.125 76.2778 19.125 78.625C19.125 80.9722 17.2222 82.875 14.875 82.875C12.5278 82.875 10.625 80.9722 10.625 78.625C10.625 76.2778 12.5278 74.375 14.875 74.375ZM24.0684 67.7988C25.353 65.8347 27.9868 65.284 29.9512 66.5684C34.5221 69.5568 43.0032 71.1875 55.25 71.1875C60.7326 71.1875 65.4791 70.8628 69.4785 70.2217C71.7961 69.8502 73.976 71.4276 74.3477 73.7451C74.7192 76.0627 73.1418 78.2427 70.8242 78.6143C66.3446 79.3324 61.1568 79.6875 55.25 79.6875C41.4972 79.6875 31.5613 77.7763 25.2988 73.6816C23.3347 72.397 22.784 69.7632 24.0684 67.7988ZM82.875 65.875C85.2222 65.875 87.125 67.7778 87.125 70.125C87.125 72.4722 85.2222 74.375 82.875 74.375C80.5278 74.375 78.625 72.4722 78.625 70.125C78.625 67.7778 80.5278 65.875 82.875 65.875ZM76.3408 45.291C78.32 44.0296 80.9473 44.6117 82.209 46.5908C83.4704 48.57 82.8883 51.1973 80.9092 52.459C73.4062 57.2419 61.3628 59.5 44.625 59.5C36.3589 59.5 29.2551 58.9463 23.2969 57.8252C20.9902 57.3911 19.4722 55.169 19.9062 52.8623C20.3404 50.5557 22.5625 49.0377 24.8691 49.4717C30.2607 50.4861 36.8516 51 44.625 51C46.5816 51 48.4619 50.9673 50.2656 50.9023L52.3936 50.8086C63.5457 50.229 71.5569 48.3408 76.3408 45.291ZM10.625 44.625C12.9722 44.625 14.875 46.5278 14.875 48.875C14.875 51.2222 12.9722 53.125 10.625 53.125C8.27779 53.125 6.375 51.2222 6.375 48.875C6.375 46.5278 8.27779 44.625 10.625 44.625ZM48.875 8.5C52.6151 8.5 56.2927 8.6557 59.8418 8.95996C62.1804 9.16045 63.9144 11.219 63.7139 13.5576C63.5132 15.8961 61.4547 17.6291 59.1162 17.4287C55.8098 17.1453 52.3742 17 48.875 17C38.4308 17 28.6836 18.3019 21.6055 20.5371C18.3435 21.5672 15.8133 22.7498 14.2158 23.9424C13.5645 24.4287 13.1237 24.8755 12.8867 25.2412L12.8281 25.3359L12.7529 25.4854V25.5146L12.7891 25.5947C12.8098 25.6341 12.8408 25.6879 12.8867 25.7588C13.1237 26.1245 13.5645 26.5713 14.2158 27.0576C15.8133 28.2502 18.3435 29.4328 21.6055 30.4629C28.6836 32.6981 38.4308 34 48.875 34C59.3192 34 69.0664 32.6981 76.1445 30.4629C79.4065 29.4328 81.9367 28.2502 83.5342 27.0576C84.1855 26.5713 84.6263 26.1245 84.8633 25.7588L84.9219 25.6641L85 25.5C85 25.0782 83.9007 23.8909 81.1748 22.5215C79.0774 21.4678 78.2315 18.9138 79.2852 16.8164C80.3388 14.719 82.8928 13.8731 84.9902 14.9268C90.2819 17.5852 93.5 21.0591 93.5 25.5C93.5 30.5323 89.1025 34.5889 81.877 37.4756L80.7432 37.9102C80.3579 38.052 79.9649 38.1915 79.5654 38.3271L78.3467 38.7246C77.9336 38.8539 77.5134 38.9796 77.0869 39.1025L75.7871 39.4619C75.1278 39.6368 74.4539 39.8045 73.7666 39.9648L72.373 40.2764C72.1382 40.3265 71.9018 40.3753 71.6641 40.4238L70.2188 40.7061C69.9751 40.7513 69.7298 40.7953 69.4834 40.8389L67.9893 41.0908C67.7376 41.1311 67.4847 41.1704 67.2305 41.209L65.6895 41.4307C65.4303 41.4659 65.1698 41.4997 64.9082 41.5332L63.3232 41.7246L61.7119 41.8945L60.0732 42.0439C59.5231 42.0903 58.9684 42.1335 58.4102 42.1729L56.7236 42.2803C56.1577 42.3126 55.5878 42.3419 55.0146 42.3672L53.2842 42.4316C52.7042 42.4497 52.1206 42.4647 51.5342 42.4756L49.7656 42.4971C49.4695 42.4989 49.1726 42.5 48.875 42.5L47.0977 42.4893C46.5081 42.482 45.9213 42.4706 45.3379 42.4561L43.5977 42.4023C43.0209 42.3807 42.4476 42.355 41.8779 42.3262L40.1797 42.2295C39.6175 42.1936 39.0592 42.1542 38.5049 42.1113L36.8545 41.9717C36.5815 41.9468 36.309 41.9212 36.0381 41.8945L34.4268 41.7246L32.8418 41.5332L31.2861 41.3223C31.0294 41.2854 30.7737 41.2476 30.5195 41.209L29.0098 40.9678C28.7608 40.9258 28.5129 40.8825 28.2666 40.8389L26.8047 40.5674C26.3231 40.4736 25.8471 40.3768 25.377 40.2764L23.9834 39.9648C23.2961 39.8045 22.6222 39.6368 21.9629 39.4619L20.6631 39.1025C20.2366 38.9796 19.8164 38.8539 19.4033 38.7246L18.1846 38.3271C17.7851 38.1915 17.3921 38.052 17.0068 37.9102L15.873 37.4756C8.6475 34.5889 4.25 30.5323 4.25 25.5C4.25 20.4677 8.6475 16.4111 15.873 13.5244L17.0068 13.0898C17.3921 12.948 17.7851 12.8085 18.1846 12.6729L19.4033 12.2754C19.8164 12.1461 20.2366 12.0204 20.6631 11.8975L21.9629 11.5381C22.6222 11.3632 23.2961 11.1955 23.9834 11.0352L25.377 10.7236C25.6118 10.6735 25.8482 10.6247 26.0859 10.5762L27.5312 10.2939C27.7749 10.2487 28.0202 10.2047 28.2666 10.1611L29.7607 9.90918C30.0124 9.86892 30.2653 9.8296 30.5195 9.79102L32.0605 9.56934C32.3197 9.53414 32.5802 9.5003 32.8418 9.4668L34.4268 9.27539L36.0381 9.10547L37.6768 8.95605C38.2269 8.90969 38.7816 8.86652 39.3398 8.82715L41.0264 8.71973C41.5923 8.68739 42.1622 8.65805 42.7354 8.63281L44.4658 8.56836C45.0458 8.55027 45.6294 8.53531 46.2158 8.52441L47.9844 8.50293C48.2805 8.50111 48.5774 8.5 48.875 8.5ZM72.25 4.25C74.5972 4.25 76.5 6.15279 76.5 8.5C76.5 10.8472 74.5972 12.75 72.25 12.75C69.9028 12.75 68 10.8472 68 8.5C68 6.15279 69.9028 4.25 72.25 4.25Z" fill="url(#paint0_linear_664_55)"/>
</g>
<defs>
<filter id="filter0_i_664_55" x="4.25" y="4.25" width="89.25" height="95.5" filterUnits="userSpaceOnUse" color-interpolation-filters="sRGB">
<feFlood flood-opacity="0" result="BackgroundImageFix"/>
<feBlend mode="normal" in="SourceGraphic" in2="BackgroundImageFix" result="shape"/>
<feColorMatrix in="SourceAlpha" type="matrix" values="0 0 0 0 0 0 0 0 0 0 0 0 0 0 0 0 0 0 127 0" result="hardAlpha"/>
<feOffset dy="2"/>
<feGaussianBlur stdDeviation="4"/>
<feComposite in2="hardAlpha" operator="arithmetic" k2="-1" k3="1"/>
<feColorMatrix type="matrix" values="0 0 0 0 0.831313 0 0 0 0 0.98288 0 0 0 0 0.98288 0 0 0 1 0"/>
<feBlend mode="normal" in2="shape" result="effect1_innerShadow_664_55"/>
</filter>
<linearGradient id="paint0_linear_664_55" x1="4.25" y1="4.25" x2="4.25" y2="97.75" gradientUnits="userSpaceOnUse">
<stop stop-color="#8FD5FF"/>
<stop offset="1" stop-color="#4CAFFF"/>
</linearGradient>
</defs>
</svg>
