<svg width="12" height="12" viewBox="0 0 12 12" fill="none" xmlns="http://www.w3.org/2000/svg">
<path d="M0 6.0565C0 6.46511 0.0947686 6.83658 0.272459 7.11518C0.450149 7.39379 0.675222 7.5238 0.935834 7.48665H8.7305L7.51037 9.49258C7.32083 9.78976 7.22606 10.1427 7.22606 10.5141C7.22606 10.9227 7.32083 11.2942 7.51037 11.5728C7.6999 11.87 7.92498 12 8.19743 12C8.4462 11.9814 8.65943 11.8143 8.82527 11.4985L11.7275 7.02232C11.9171 6.72514 12 6.37224 12 5.94506C11.9882 5.49929 11.8934 5.1464 11.7157 4.8678L8.78973 0.42874C8.61204 0.131564 8.39882 -0.0170225 8.15005 0.00155099C7.87759 0.00155099 7.65252 0.131564 7.47483 0.410166C7.28529 0.688768 7.20237 1.04166 7.20237 1.45028C7.20237 1.87747 7.29714 2.23036 7.47483 2.50897L8.7305 4.5149H0.923989C0.651531 4.53347 0.438302 4.68206 0.260612 4.97924C0.0829223 5.29498 0 5.64788 0 6.0565Z" fill="black"/>
</svg>
