<svg width="12" height="12" viewBox="0 0 12 12" fill="none" xmlns="http://www.w3.org/2000/svg">
<path d="M0 8.16996C0 8.43083 0.148607 8.64427 0.464396 8.82213L4.9226 11.7273C5.21981 11.917 5.57276 12 6 12C6.44582 12 6.79876 11.9051 7.09598 11.7273L11.5542 8.82213C11.8514 8.65613 12 8.43083 12 8.16996C12 7.90909 11.8514 7.68379 11.5728 7.49407C11.2941 7.30435 10.9412 7.22134 10.5325 7.22134C10.1238 7.22134 9.75232 7.3162 9.47369 7.49407L7.50465 8.73913V0.924901C7.50465 0.664031 7.35604 0.438735 7.05882 0.26087C6.78019 0.094862 6.42724 0 6 0C5.57276 0 5.21981 0.0830043 4.9226 0.26087C4.62539 0.438735 4.47678 0.664031 4.47678 0.924901V8.73913L2.50774 7.49407C2.21053 7.30435 1.87616 7.22134 1.48607 7.22134C1.0774 7.22134 0.705882 7.3162 0.427244 7.49407C0.148606 7.67194 0 7.90909 0 8.16996Z" fill="black"/>
</svg>
