<svg width="12" height="12" viewBox="0 0 12 12" fill="none" xmlns="http://www.w3.org/2000/svg">
<path d="M0 6.00593C0 6.4451 0.0910239 6.81306 0.280657 7.09792L3.19343 11.549C3.3603 11.8457 3.58028 12 3.83818 12C4.10367 12 4.33123 11.8576 4.51327 11.5846C4.69532 11.3116 4.79393 10.9555 4.79393 10.5401C4.79393 10.1246 4.70291 9.76854 4.51327 9.48368L3.26928 7.53709H11.0822C11.3477 7.53709 11.5676 7.39466 11.7421 7.09792C11.9166 6.80119 12 6.4451 12 6.02967C12 5.61424 11.9166 5.25816 11.7421 4.96142C11.5676 4.66469 11.3477 4.51039 11.0822 4.49852H3.26928L4.51327 2.52819C4.69532 2.24332 4.79393 1.89911 4.79393 1.50742C4.79393 1.09199 4.70291 0.735905 4.51327 0.451039C4.32364 0.166172 4.10367 0 3.83059 0C3.58786 0 3.36789 0.166173 3.18584 0.486648L0.273072 4.93769C0.0910238 5.23442 0 5.57864 0 6.00593Z" fill="black"/>
</svg>
