<svg width="12" height="12" viewBox="0 0 12 12" fill="none" xmlns="http://www.w3.org/2000/svg">
<path d="M0 6.68416V1.27144C0 0.908174 0.121335 0.605449 0.364004 0.36327C0.606674 0.12109 0.91001 0 1.26188 0H6.69767C7.04954 0 7.35288 0.12109 7.59555 0.36327C7.83822 0.605449 7.95955 0.908174 7.95955 1.27144C7.95955 1.6226 7.83822 1.91322 7.59555 2.1554C7.35288 2.39758 7.04954 2.50656 6.69767 2.50656H4.33165L11.6845 9.8446C11.9029 10.0989 12 10.4016 12 10.7891C12 11.1403 11.8908 11.4309 11.6845 11.6609C11.4419 11.891 11.1264 12 10.726 12C10.362 12 10.0586 11.891 9.84024 11.6609L2.53589 4.33501V6.69627C2.53589 7.05954 2.41456 7.36226 2.17189 7.60444C1.92922 7.84662 1.62588 7.96771 1.26188 7.96771C0.91001 7.96771 0.606674 7.84662 0.364004 7.59233C0.121335 7.33804 0 7.03532 0 6.68416Z" fill="black"/>
</svg>
