<svg width="12" height="12" viewBox="0 0 12 12" fill="none" xmlns="http://www.w3.org/2000/svg">
<path d="M0 10.777C0 11.1403 0.108981 11.443 0.314834 11.661C0.557013 11.891 0.871847 12 1.27144 12C1.63471 12 1.93744 11.891 2.1554 11.661L9.46922 4.33502V6.69627C9.46922 7.05954 9.59031 7.36226 9.83249 7.60444C10.0747 7.84662 10.3774 7.96771 10.7407 7.96771C11.0918 7.96771 11.3946 7.84662 11.6367 7.59233C11.8789 7.33804 12 7.04743 12 6.68416V1.27144C12 0.908174 11.8789 0.605449 11.6367 0.36327C11.3946 0.12109 11.0918 0 10.7407 0H5.29162C4.94046 0 4.63774 0.12109 4.40767 0.36327C4.1776 0.605449 4.05651 0.896065 4.05651 1.27144C4.05651 1.6226 4.1776 1.92533 4.40767 2.1554C4.63774 2.38547 4.94046 2.50656 5.29162 2.50656H7.65288L0.314834 9.8446C0.108981 10.0989 0 10.4137 0 10.777Z" fill="black"/>
</svg>
