<svg width="12" height="12" viewBox="0 0 12 12" fill="none" xmlns="http://www.w3.org/2000/svg">
<path d="M0.000740205 3.83519C-0.0111168 4.10047 0.11931 4.32786 0.403878 4.51734C0.688445 4.70683 1.0323 4.79778 1.45915 4.7902C1.86229 4.80536 2.20614 4.71441 2.50256 4.50976L4.47082 3.26674V11.0736C4.45896 11.3388 4.60125 11.5586 4.89767 11.7405C5.1941 11.9225 5.5498 12.0058 5.98851 11.9982C6.39165 12.0134 6.74736 11.93 7.04378 11.7557C7.34021 11.5814 7.50621 11.354 7.51806 11.0887V3.2819L9.46261 4.52492C9.73532 4.70683 10.091 4.80536 10.506 4.80536C10.9329 4.80536 11.2886 4.71441 11.5731 4.5325C11.8577 4.3506 12 4.13079 12 3.85793C11.9763 3.58507 11.8221 3.37285 11.5257 3.21368L7.09121 0.303178C6.80664 0.12885 6.43908 0.0227383 6.00037 0C5.56166 0.0151589 5.1941 0.121271 4.90953 0.310757L0.463163 3.19852C0.154881 3.36527 0.000740205 3.57749 0.000740205 3.83519Z" fill="black"/>
</svg>
