<svg width="12" height="12" viewBox="0 0 12 12" fill="none" xmlns="http://www.w3.org/2000/svg">
<path d="M0 10.7319C0 11.0915 0.113387 11.3943 0.359056 11.6404C0.604725 11.8864 0.907086 12 1.24724 12H6.67087C7.02992 12 7.33228 11.8864 7.55905 11.6404C7.80472 11.3943 7.91811 11.0915 7.91811 10.7319C7.91811 10.3722 7.80472 10.0883 7.55905 9.8612C7.31339 9.63407 7.01102 9.5205 6.67087 9.5205H4.32756L11.6598 2.15773C11.8866 1.89274 12 1.5899 12 1.21136C12 0.870661 11.8866 0.58675 11.6598 0.340693C11.4331 0.113563 11.1118 0 10.715 0C10.337 0 10.0346 0.113563 9.80787 0.340693L2.51339 7.66561V5.29968C2.51339 4.94006 2.4 4.63722 2.15433 4.39117C1.90866 4.14511 1.6063 4.03154 1.24724 4.03154C0.888189 4.03154 0.585828 4.16404 0.359056 4.41009C0.113387 4.65615 0 4.95899 0 5.31861V10.7319Z" fill="black"/>
</svg>
