<svg width="12" height="12" viewBox="0 0 12 12" fill="none" xmlns="http://www.w3.org/2000/svg">
<path d="M0 1.22177C0 0.858871 0.108871 0.556452 0.314516 0.338711C0.556452 0.108872 0.870968 0 1.27016 0C1.63306 0 1.93548 0.108872 2.15323 0.338711L9.47178 7.65726V5.29839C9.47178 4.93548 9.59274 4.63306 9.83468 4.39113C10.0766 4.14919 10.379 4.02823 10.7419 4.02823C11.0927 4.02823 11.3952 4.14919 11.6371 4.40323C11.879 4.65726 12 4.94758 12 5.31048V10.7298C12 11.0927 11.879 11.3952 11.6371 11.6371C11.3952 11.879 11.0927 12 10.7419 12H5.32258C4.97177 12 4.66936 11.879 4.42742 11.6371C4.18548 11.3952 4.06452 11.0927 4.06452 10.7298C4.06452 10.379 4.18548 10.0766 4.42742 9.84677C4.66936 9.61694 4.97177 9.49597 5.32258 9.49597H7.65726L0.302419 2.16532C0.108871 1.8871 0 1.58468 0 1.22177Z" fill="black"/>
</svg>
