<svg width="102" height="102" viewBox="0 0 102 102" fill="none" xmlns="http://www.w3.org/2000/svg">
<g filter="url(#filter0_i_280_338)">
<path fill-rule="evenodd" clip-rule="evenodd" d="M81.6744 71.414L84.6796 74.4192C86.3394 76.079 86.3394 78.7699 84.6796 80.4296C83.0199 82.0894 80.329 82.0894 78.6692 80.4296L75.664 77.4244C74.0043 75.7647 74.0043 73.0738 75.664 71.414C77.3238 69.7543 80.0147 69.7543 81.6744 71.414ZM53.125 21.25C68.3819 21.25 80.75 33.6181 80.75 48.875C80.75 64.1319 68.3819 76.5 53.125 76.5C37.8681 76.5 25.5 64.1319 25.5 48.875C25.5 33.6181 37.8681 21.25 53.125 21.25ZM93.5 44.625C95.8472 44.625 97.75 46.5278 97.75 48.875C97.75 51.2222 95.8472 53.125 93.5 53.125H89.25C86.9028 53.125 85 51.2222 85 48.875C85 46.5278 86.9028 44.625 89.25 44.625H93.5ZM17 44.625C19.3472 44.625 21.25 46.5278 21.25 48.875C21.25 51.2222 19.3472 53.125 17 53.125H12.75C10.4028 53.125 8.5 51.2222 8.5 48.875C8.5 46.5278 10.4028 44.625 12.75 44.625H17ZM27.5808 17.3204L30.586 20.3256C32.2457 21.9853 32.2457 24.6762 30.586 26.336C28.9262 27.9957 26.2353 27.9957 24.5756 26.336L21.5704 23.3308C19.9106 21.671 19.9106 18.9801 21.5704 17.3204C23.2301 15.6606 25.921 15.6606 27.5808 17.3204ZM84.6796 17.3204C86.3394 18.9801 86.3394 21.671 84.6796 23.3308L81.6744 26.336C80.0147 27.9957 77.3238 27.9957 75.664 26.336C74.0043 24.6762 74.0043 21.9853 75.664 20.3256L78.6692 17.3204C80.329 15.6606 83.0199 15.6606 84.6796 17.3204ZM53.125 4.25C55.4722 4.25 57.375 6.15279 57.375 8.5V12.75C57.375 15.0972 55.4722 17 53.125 17C50.7778 17 48.875 15.0972 48.875 12.75V8.5C48.875 6.15279 50.7778 4.25 53.125 4.25Z" fill="url(#paint0_linear_280_338)"/>
</g>
<g filter="url(#filter1_i_280_338)">
<path fill-rule="evenodd" clip-rule="evenodd" d="M29.1125 51C37.0726 51 44.1177 55.5481 47.5398 62.3635L47.7233 62.7427L48.2575 62.705L48.9812 62.6875C57.1378 62.6875 63.75 69.2997 63.75 77.4563C63.75 85.6128 57.1378 92.225 48.9812 92.225H27.9437C27.6241 92.225 27.3126 92.1897 27.0131 92.1228L26.9832 92.1124L26.5014 92.0609C16.4895 90.7954 8.78974 82.382 8.50799 72.1912L8.5 71.6125C8.5 60.2285 17.7285 51 29.1125 51Z" fill="url(#paint1_linear_280_338)"/>
</g>
<defs>
<filter id="filter0_i_280_338" x="8.5" y="4.25" width="89.25" height="79.4243" filterUnits="userSpaceOnUse" color-interpolation-filters="sRGB">
<feFlood flood-opacity="0" result="BackgroundImageFix"/>
<feBlend mode="normal" in="SourceGraphic" in2="BackgroundImageFix" result="shape"/>
<feColorMatrix in="SourceAlpha" type="matrix" values="0 0 0 0 0 0 0 0 0 0 0 0 0 0 0 0 0 0 127 0" result="hardAlpha"/>
<feOffset dy="2"/>
<feGaussianBlur stdDeviation="4"/>
<feComposite in2="hardAlpha" operator="arithmetic" k2="-1" k3="1"/>
<feColorMatrix type="matrix" values="0 0 0 0 1 0 0 0 0 1 0 0 0 0 1 0 0 0 1 0"/>
<feBlend mode="overlay" in2="shape" result="effect1_innerShadow_280_338"/>
</filter>
<filter id="filter1_i_280_338" x="6.5" y="51" width="57.25" height="45.2251" filterUnits="userSpaceOnUse" color-interpolation-filters="sRGB">
<feFlood flood-opacity="0" result="BackgroundImageFix"/>
<feBlend mode="normal" in="SourceGraphic" in2="BackgroundImageFix" result="shape"/>
<feColorMatrix in="SourceAlpha" type="matrix" values="0 0 0 0 0 0 0 0 0 0 0 0 0 0 0 0 0 0 127 0" result="hardAlpha"/>
<feOffset dx="-2" dy="4"/>
<feGaussianBlur stdDeviation="2"/>
<feComposite in2="hardAlpha" operator="arithmetic" k2="-1" k3="1"/>
<feColorMatrix type="matrix" values="0 0 0 0 1 0 0 0 0 1 0 0 0 0 1 0 0 0 1 0"/>
<feBlend mode="normal" in2="shape" result="effect1_innerShadow_280_338"/>
</filter>
<linearGradient id="paint0_linear_280_338" x1="53.125" y1="4.25" x2="53.125" y2="81.6744" gradientUnits="userSpaceOnUse">
<stop stop-color="#FFD358"/>
<stop offset="1" stop-color="#FA6C21"/>
</linearGradient>
<linearGradient id="paint1_linear_280_338" x1="12.3706" y1="51" x2="65.3264" y2="90.0894" gradientUnits="userSpaceOnUse">
<stop stop-color="#F0F0F0"/>
<stop offset="1" stop-color="#B4E6FB"/>
</linearGradient>
</defs>
</svg>
