<svg width="102" height="102" viewBox="0 0 102 102" fill="none" xmlns="http://www.w3.org/2000/svg">
<g filter="url(#filter0_i_280_580)">
<path fill-rule="evenodd" clip-rule="evenodd" d="M38.25 17C19.4723 17 4.25 32.2223 4.25 51L4.25716 51.7039C4.60531 68.793 17.6005 82.9084 34.4341 84.788L34.9945 84.8449L35.1909 84.897C35.4915 84.9644 35.8041 85 36.125 85H74.375L75.0003 84.9914C87.6818 84.6246 97.75 74.2783 97.75 61.625C97.75 48.7153 87.2847 38.25 74.375 38.25L73.4576 38.2677C72.5428 38.3032 71.636 38.3915 70.741 38.5316L69.9444 38.6707L69.7241 38.1136C64.5926 25.5701 52.2828 17 38.25 17Z" fill="url(#paint0_linear_280_580)"/>
</g>
<defs>
<filter id="filter0_i_280_580" x="2.25" y="17" width="95.5" height="72" filterUnits="userSpaceOnUse" color-interpolation-filters="sRGB">
<feFlood flood-opacity="0" result="BackgroundImageFix"/>
<feBlend mode="normal" in="SourceGraphic" in2="BackgroundImageFix" result="shape"/>
<feColorMatrix in="SourceAlpha" type="matrix" values="0 0 0 0 0 0 0 0 0 0 0 0 0 0 0 0 0 0 127 0" result="hardAlpha"/>
<feOffset dx="-2" dy="4"/>
<feGaussianBlur stdDeviation="2"/>
<feComposite in2="hardAlpha" operator="arithmetic" k2="-1" k3="1"/>
<feColorMatrix type="matrix" values="0 0 0 0 1 0 0 0 0 1 0 0 0 0 1 0 0 0 1 0"/>
<feBlend mode="normal" in2="shape" result="effect1_innerShadow_280_580"/>
</filter>
<linearGradient id="paint0_linear_280_580" x1="10.8002" y1="17" x2="98.7855" y2="83.6326" gradientUnits="userSpaceOnUse">
<stop stop-color="white"/>
<stop offset="1" stop-color="#B4E6FB"/>
</linearGradient>
</defs>
</svg>
