<svg width="102" height="110" viewBox="0 0 102 110" fill="none" xmlns="http://www.w3.org/2000/svg">
<g filter="url(#filter0_i_289_1034)">
<path fill-rule="evenodd" clip-rule="evenodd" d="M67.175 2.63086C71.0076 1.85617 73.7644 6.2314 71.4113 9.35423C69.6413 11.7033 68.6711 14.5522 68.6711 17.5592C68.6711 25.095 74.78 31.2039 82.3158 31.2039C85.3225 31.2039 88.1708 30.2339 90.5184 28.4644C93.6408 26.1109 98.0164 28.867 97.2424 32.6996C94.8577 44.508 84.4411 53.125 72.25 53.125C58.1667 53.125 46.75 41.7083 46.75 27.625C46.75 15.4343 55.3665 5.01775 67.175 2.63086Z" fill="url(#paint0_linear_289_1034)"/>
</g>
<g filter="url(#filter1_i_289_1034)">
<path fill-rule="evenodd" clip-rule="evenodd" d="M38.25 19.125C19.4723 19.125 4.25 34.3473 4.25 53.125L4.25716 53.8289C4.60531 70.918 17.6005 85.0334 34.4341 86.913L34.9945 86.9699L35.1909 87.022C35.4915 87.0894 35.8041 87.125 36.125 87.125H74.375L75.0003 87.1164C87.6818 86.7496 97.75 76.4033 97.75 63.75C97.75 50.8403 87.2847 40.375 74.375 40.375L73.4576 40.3927C72.5428 40.4282 71.636 40.5165 70.741 40.6566L69.9444 40.7957L69.7241 40.2386C64.5926 27.6951 52.2828 19.125 38.25 19.125Z" fill="black"/>
</g>
<path fill-rule="evenodd" clip-rule="evenodd" d="M33.1587 93.2702C35.0889 94.0081 36.0749 96.0373 35.4641 97.9022L35.3605 98.1805L31.4082 107.624C30.5975 109.561 28.2974 110.504 26.2708 109.729C24.3406 108.991 23.3546 106.962 23.9653 105.097L24.069 104.818L28.0213 95.3746C28.8319 93.4375 31.1321 92.4954 33.1587 93.2702ZM28.2184 76.2712C30.1485 77.0091 31.1346 79.0383 30.5238 80.9032L30.4201 81.1815L26.4678 90.6254C25.6572 92.5625 23.3571 93.5046 21.3304 92.7298C19.4002 91.9919 18.4142 89.9627 19.025 88.0978L19.1286 87.8195L23.0809 78.3756C23.8916 76.4385 26.1917 75.4964 28.2184 76.2712ZM10.236 95.3746C11.0467 93.4375 13.3468 92.4954 15.3735 93.2702C17.3036 94.0081 18.2896 96.0373 17.6789 97.9022L17.5752 98.1805L13.6229 107.624C12.8123 109.561 10.5122 110.504 8.48549 109.729C6.55534 108.991 5.56931 106.962 6.18006 105.097L6.28373 104.818L10.236 95.3746ZM50.944 93.2702C52.8741 94.0081 53.8602 96.0373 53.2494 97.9022L53.1457 98.1805L49.1935 107.624C48.3828 109.561 46.0827 110.504 44.056 109.729C42.1259 108.991 41.1398 106.962 41.7506 105.097L41.8543 104.818L45.8065 95.3746C46.6172 93.4375 48.9173 92.4954 50.944 93.2702ZM46.0036 76.2712C47.9338 77.0091 48.9198 79.0383 48.3091 80.9032L48.2054 81.1815L44.2531 90.6254C43.4424 92.5625 41.1423 93.5046 39.1157 92.7298C37.1855 91.9919 36.1995 89.9627 36.8102 88.0978L36.9139 87.8195L40.8662 78.3756C41.6769 76.4385 43.977 75.4964 46.0036 76.2712ZM68.7292 93.2702C70.6594 94.0081 71.6454 96.0373 71.0347 97.9022L70.931 98.1805L66.9787 107.624C66.1681 109.561 63.8679 110.504 61.8413 109.729C59.9111 108.991 58.9251 106.962 59.5359 105.097L59.6395 104.818L63.5918 95.3746C64.4025 93.4375 66.7026 92.4954 68.7292 93.2702ZM63.7889 76.2712C65.7191 77.0091 66.7051 79.0383 66.0943 80.9032L65.9907 81.1815L62.0384 90.6254C61.2277 92.5625 58.9276 93.5046 56.9009 92.7298C54.9708 91.9919 53.9847 89.9627 54.5955 88.0978L54.6992 87.8195L58.6515 78.3756C59.4621 76.4385 61.7622 75.4964 63.7889 76.2712ZM86.5145 93.2702C88.4447 94.0081 89.4307 96.0373 88.8199 97.9022L88.7163 98.1805L84.764 107.624C83.9533 109.561 81.6532 110.504 79.6265 109.729C77.6964 108.991 76.7104 106.962 77.3211 105.097L77.4248 104.818L81.3771 95.3746C82.1877 93.4375 84.4878 92.4954 86.5145 93.2702ZM81.5742 76.2712C83.5043 77.0091 84.4903 79.0383 83.8796 80.9032L83.7759 81.1815L79.8236 90.6254C79.013 92.5625 76.7129 93.5046 74.6862 92.7298C72.756 91.9919 71.77 89.9627 72.3808 88.0978L72.4844 87.8195L76.4367 78.3756C77.2474 76.4385 79.5475 75.4964 81.5742 76.2712Z" fill="url(#paint1_linear_289_1034)"/>
<defs>
<filter id="filter0_i_289_1034" x="46.75" y="2.54053" width="50.5825" height="52.5845" filterUnits="userSpaceOnUse" color-interpolation-filters="sRGB">
<feFlood flood-opacity="0" result="BackgroundImageFix"/>
<feBlend mode="normal" in="SourceGraphic" in2="BackgroundImageFix" result="shape"/>
<feColorMatrix in="SourceAlpha" type="matrix" values="0 0 0 0 0 0 0 0 0 0 0 0 0 0 0 0 0 0 127 0" result="hardAlpha"/>
<feOffset dy="2"/>
<feGaussianBlur stdDeviation="8"/>
<feComposite in2="hardAlpha" operator="arithmetic" k2="-1" k3="1"/>
<feColorMatrix type="matrix" values="0 0 0 0 1 0 0 0 0 1 0 0 0 0 1 0 0 0 1 0"/>
<feBlend mode="overlay" in2="shape" result="effect1_innerShadow_289_1034"/>
</filter>
<filter id="filter1_i_289_1034" x="4.25" y="19.125" width="93.5" height="70" filterUnits="userSpaceOnUse" color-interpolation-filters="sRGB">
<feFlood flood-opacity="0" result="BackgroundImageFix"/>
<feBlend mode="normal" in="SourceGraphic" in2="BackgroundImageFix" result="shape"/>
<feColorMatrix in="SourceAlpha" type="matrix" values="0 0 0 0 0 0 0 0 0 0 0 0 0 0 0 0 0 0 127 0" result="hardAlpha"/>
<feOffset dy="2"/>
<feGaussianBlur stdDeviation="4"/>
<feComposite in2="hardAlpha" operator="arithmetic" k2="-1" k3="1"/>
<feColorMatrix type="matrix" values="0 0 0 0 0.831313 0 0 0 0 0.98288 0 0 0 0 0.98288 0 0 0 1 0"/>
<feBlend mode="normal" in2="shape" result="effect1_innerShadow_289_1034"/>
</filter>
<linearGradient id="paint0_linear_289_1034" x1="72.0413" y1="2.54053" x2="72.0413" y2="53.125" gradientUnits="userSpaceOnUse">
<stop stop-color="#B1B1B1"/>
<stop offset="1" stop-color="white"/>
</linearGradient>
<linearGradient id="paint1_linear_289_1034" x1="6" y1="76" x2="6" y2="110" gradientUnits="userSpaceOnUse">
<stop stop-color="#D6F0FF"/>
<stop offset="1" stop-color="#A2D5FF"/>
</linearGradient>
</defs>
</svg>
