<svg width="102" height="102" viewBox="0 0 102 102" fill="none" xmlns="http://www.w3.org/2000/svg">
<g filter="url(#filter0_i_282_886)">
<path fill-rule="evenodd" clip-rule="evenodd" d="M67.175 2.63086C71.0076 1.85617 73.7644 6.2314 71.4113 9.35423C69.6413 11.7033 68.6711 14.5522 68.6711 17.5592C68.6711 25.095 74.78 31.2039 82.3158 31.2039C85.3225 31.2039 88.1708 30.2339 90.5184 28.4644C93.6408 26.1109 98.0164 28.867 97.2424 32.6996C94.8577 44.508 84.4411 53.125 72.25 53.125C58.1667 53.125 46.75 41.7083 46.75 27.625C46.75 15.4343 55.3665 5.01775 67.175 2.63086Z" fill="url(#paint0_linear_282_886)"/>
</g>
<g filter="url(#filter1_i_282_886)">
<path fill-rule="evenodd" clip-rule="evenodd" d="M38.25 19.125C19.4723 19.125 4.25 34.3473 4.25 53.125L4.25716 53.8289C4.60531 70.918 17.6005 85.0334 34.4341 86.913L34.9945 86.9699L35.1909 87.022C35.4915 87.0894 35.8041 87.125 36.125 87.125H74.375L75.0003 87.1164C87.6818 86.7496 97.75 76.4033 97.75 63.75C97.75 50.8403 87.2847 40.375 74.375 40.375L73.4576 40.3927C72.5428 40.4282 71.636 40.5165 70.741 40.6566L69.9444 40.7957L69.7241 40.2386C64.5926 27.6951 52.2828 19.125 38.25 19.125Z" fill="black"/>
</g>
<path fill-rule="evenodd" clip-rule="evenodd" d="M40.679 81.2967C41.5507 79.1174 44.0241 78.0574 46.2034 78.9291C48.279 79.7593 49.3393 82.0423 48.6825 84.1404L48.5711 84.4536L44.3211 95.0786C43.4493 97.2579 40.976 98.3179 38.7966 97.4462C36.7211 96.616 35.6608 94.333 36.3175 92.2349L36.429 91.9217L40.679 81.2967ZM59.804 81.2967C60.6757 79.1174 63.1491 78.0574 65.3284 78.9291C67.404 79.7593 68.4643 82.0423 67.8075 84.1404L67.6961 84.4536L63.4461 95.0786C62.5743 97.2579 60.101 98.3179 57.9216 97.4462C55.8461 96.616 54.7858 94.333 55.4425 92.2349L55.554 91.9217L59.804 81.2967Z" fill="url(#paint1_linear_282_886)"/>
<defs>
<filter id="filter0_i_282_886" x="46.75" y="2.54053" width="50.5826" height="52.5845" filterUnits="userSpaceOnUse" color-interpolation-filters="sRGB">
<feFlood flood-opacity="0" result="BackgroundImageFix"/>
<feBlend mode="normal" in="SourceGraphic" in2="BackgroundImageFix" result="shape"/>
<feColorMatrix in="SourceAlpha" type="matrix" values="0 0 0 0 0 0 0 0 0 0 0 0 0 0 0 0 0 0 127 0" result="hardAlpha"/>
<feOffset dy="2"/>
<feGaussianBlur stdDeviation="8"/>
<feComposite in2="hardAlpha" operator="arithmetic" k2="-1" k3="1"/>
<feColorMatrix type="matrix" values="0 0 0 0 1 0 0 0 0 1 0 0 0 0 1 0 0 0 1 0"/>
<feBlend mode="overlay" in2="shape" result="effect1_innerShadow_282_886"/>
</filter>
<filter id="filter1_i_282_886" x="4.25" y="19.125" width="93.5" height="70" filterUnits="userSpaceOnUse" color-interpolation-filters="sRGB">
<feFlood flood-opacity="0" result="BackgroundImageFix"/>
<feBlend mode="normal" in="SourceGraphic" in2="BackgroundImageFix" result="shape"/>
<feColorMatrix in="SourceAlpha" type="matrix" values="0 0 0 0 0 0 0 0 0 0 0 0 0 0 0 0 0 0 127 0" result="hardAlpha"/>
<feOffset dy="2"/>
<feGaussianBlur stdDeviation="4"/>
<feComposite in2="hardAlpha" operator="arithmetic" k2="-1" k3="1"/>
<feColorMatrix type="matrix" values="0 0 0 0 0.831313 0 0 0 0 0.98288 0 0 0 0 0.98288 0 0 0 1 0"/>
<feBlend mode="normal" in2="shape" result="effect1_innerShadow_282_886"/>
</filter>
<linearGradient id="paint0_linear_282_886" x1="72.0413" y1="2.54053" x2="72.0413" y2="53.125" gradientUnits="userSpaceOnUse">
<stop stop-color="#B1B1B1"/>
<stop offset="1" stop-color="white"/>
</linearGradient>
<linearGradient id="paint1_linear_282_886" x1="36.1239" y1="78.624" x2="36.1239" y2="97.7513" gradientUnits="userSpaceOnUse">
<stop stop-color="#D6F0FF"/>
<stop offset="1" stop-color="#A2D5FF"/>
</linearGradient>
</defs>
</svg>
