<svg width="102" height="102" viewBox="0 0 102 102" fill="none" xmlns="http://www.w3.org/2000/svg">
<g filter="url(#filter0_i_297_273)">
<path fill-rule="evenodd" clip-rule="evenodd" d="M67.175 2.63086C71.0076 1.85617 73.7644 6.2314 71.4113 9.35423C69.6413 11.7033 68.6711 14.5522 68.6711 17.5592C68.6711 25.095 74.78 31.2039 82.3158 31.2039C85.3225 31.2039 88.1708 30.2339 90.5184 28.4644C93.6408 26.1109 98.0164 28.867 97.2424 32.6996C94.8577 44.508 84.4411 53.125 72.25 53.125C58.1667 53.125 46.75 41.7083 46.75 27.625C46.75 15.4343 55.3665 5.01775 67.175 2.63086Z" fill="url(#paint0_linear_297_273)"/>
</g>
<g filter="url(#filter1_i_297_273)">
<path fill-rule="evenodd" clip-rule="evenodd" d="M38.25 19.125C19.4723 19.125 4.25 34.3473 4.25 53.125L4.25716 53.8289C4.60531 70.918 17.6005 85.0334 34.4341 86.913L34.9945 86.9699L35.1909 87.022C35.4915 87.0894 35.8041 87.125 36.125 87.125H74.375L75.0003 87.1164C87.6818 86.7496 97.75 76.4033 97.75 63.75C97.75 50.8403 87.2847 40.375 74.375 40.375L73.4576 40.3927C72.5428 40.4282 71.636 40.5165 70.741 40.6566L69.9444 40.7957L69.7241 40.2386C64.5926 27.6951 52.2828 19.125 38.25 19.125Z" fill="black"/>
</g>
<path fill-rule="evenodd" clip-rule="evenodd" d="M32.179 81.2967C33.0507 79.1174 35.5241 78.0574 37.7034 78.9291C39.779 79.7593 40.8393 82.0423 40.1825 84.1404L40.0711 84.4536L35.8211 95.0786C34.9493 97.2579 32.476 98.3179 30.2966 97.4462C28.2211 96.616 27.1608 94.333 27.8175 92.2349L27.929 91.9217L32.179 81.2967ZM51.304 81.2967C52.1757 79.1174 54.6491 78.0574 56.8284 78.9291C58.904 79.7593 59.9643 82.0423 59.3075 84.1404L59.1961 84.4536L54.9461 95.0786C54.0743 97.2579 51.601 98.3179 49.4216 97.4462C47.3461 96.616 46.2858 94.333 46.9425 92.2349L47.054 91.9217L51.304 81.2967ZM70.429 81.2967C71.3007 79.1174 73.7741 78.0574 75.9534 78.9291C78.029 79.7593 79.0893 82.0423 78.4325 84.1404L78.3211 84.4536L74.0711 95.0786C73.1993 97.2579 70.7259 98.3179 68.5466 97.4462C66.4711 96.616 65.4108 94.333 66.0675 92.2349L66.179 91.9217L70.429 81.2967Z" fill="url(#paint1_linear_297_273)"/>
<defs>
<filter id="filter0_i_297_273" x="46.75" y="2.54053" width="50.5826" height="52.5845" filterUnits="userSpaceOnUse" color-interpolation-filters="sRGB">
<feFlood flood-opacity="0" result="BackgroundImageFix"/>
<feBlend mode="normal" in="SourceGraphic" in2="BackgroundImageFix" result="shape"/>
<feColorMatrix in="SourceAlpha" type="matrix" values="0 0 0 0 0 0 0 0 0 0 0 0 0 0 0 0 0 0 127 0" result="hardAlpha"/>
<feOffset dy="2"/>
<feGaussianBlur stdDeviation="8"/>
<feComposite in2="hardAlpha" operator="arithmetic" k2="-1" k3="1"/>
<feColorMatrix type="matrix" values="0 0 0 0 1 0 0 0 0 1 0 0 0 0 1 0 0 0 1 0"/>
<feBlend mode="overlay" in2="shape" result="effect1_innerShadow_297_273"/>
</filter>
<filter id="filter1_i_297_273" x="4.25" y="19.125" width="93.5" height="70" filterUnits="userSpaceOnUse" color-interpolation-filters="sRGB">
<feFlood flood-opacity="0" result="BackgroundImageFix"/>
<feBlend mode="normal" in="SourceGraphic" in2="BackgroundImageFix" result="shape"/>
<feColorMatrix in="SourceAlpha" type="matrix" values="0 0 0 0 0 0 0 0 0 0 0 0 0 0 0 0 0 0 127 0" result="hardAlpha"/>
<feOffset dy="2"/>
<feGaussianBlur stdDeviation="4"/>
<feComposite in2="hardAlpha" operator="arithmetic" k2="-1" k3="1"/>
<feColorMatrix type="matrix" values="0 0 0 0 0.831313 0 0 0 0 0.98288 0 0 0 0 0.98288 0 0 0 1 0"/>
<feBlend mode="normal" in2="shape" result="effect1_innerShadow_297_273"/>
</filter>
<linearGradient id="paint0_linear_297_273" x1="72.0413" y1="2.54053" x2="72.0413" y2="53.125" gradientUnits="userSpaceOnUse">
<stop stop-color="#B1B1B1"/>
<stop offset="1" stop-color="white"/>
</linearGradient>
<linearGradient id="paint1_linear_297_273" x1="27.6239" y1="78.624" x2="27.6239" y2="97.7513" gradientUnits="userSpaceOnUse">
<stop stop-color="#D6F0FF"/>
<stop offset="1" stop-color="#A2D5FF"/>
</linearGradient>
</defs>
</svg>
