<svg width="102" height="102" viewBox="0 0 102 102" fill="none" xmlns="http://www.w3.org/2000/svg">
<g filter="url(#filter0_i_304_675)">
<path fill-rule="evenodd" clip-rule="evenodd" d="M38.25 19.125C19.4723 19.125 4.25 34.3473 4.25 53.125L4.25716 53.8289C4.60531 70.918 17.6005 85.0334 34.4341 86.913L34.9945 86.9699L35.1909 87.022C35.4915 87.0894 35.8041 87.125 36.125 87.125H74.375L75.0003 87.1164C87.6818 86.7496 97.75 76.4033 97.75 63.75C97.75 50.8403 87.2847 40.375 74.375 40.375L73.4576 40.3927C72.5428 40.4282 71.636 40.5165 70.741 40.6566L69.9444 40.7957L69.7241 40.2386C64.5926 27.6951 52.2828 19.125 38.25 19.125Z" fill="black"/>
</g>
<path fill-rule="evenodd" clip-rule="evenodd" d="M40.6789 81.2965C41.5506 79.1172 44.024 78.0572 46.2033 78.9289C48.2789 79.7591 49.3392 82.0421 48.6824 84.1402L48.5709 84.4533L44.3209 95.0783C43.4492 97.2577 40.9758 98.3177 38.7965 97.4459C36.7209 96.6157 35.6606 94.3328 36.3174 92.2346L36.4289 91.9215L40.6789 81.2965ZM59.8039 81.2965C60.6756 79.1172 63.149 78.0572 65.3283 78.9289C67.4039 79.7591 68.4642 82.0421 67.8074 84.1402L67.6959 84.4533L63.4459 95.0783C62.5742 97.2577 60.1008 98.3177 57.9215 97.4459C55.8459 96.6157 54.7856 94.3328 55.4424 92.2346L55.5539 91.9215L59.8039 81.2965Z" fill="url(#paint0_linear_304_675)"/>
<defs>
<filter id="filter0_i_304_675" x="4.25" y="19.125" width="93.5" height="70" filterUnits="userSpaceOnUse" color-interpolation-filters="sRGB">
<feFlood flood-opacity="0" result="BackgroundImageFix"/>
<feBlend mode="normal" in="SourceGraphic" in2="BackgroundImageFix" result="shape"/>
<feColorMatrix in="SourceAlpha" type="matrix" values="0 0 0 0 0 0 0 0 0 0 0 0 0 0 0 0 0 0 127 0" result="hardAlpha"/>
<feOffset dy="2"/>
<feGaussianBlur stdDeviation="4"/>
<feComposite in2="hardAlpha" operator="arithmetic" k2="-1" k3="1"/>
<feColorMatrix type="matrix" values="0 0 0 0 0.831313 0 0 0 0 0.98288 0 0 0 0 0.98288 0 0 0 1 0"/>
<feBlend mode="normal" in2="shape" result="effect1_innerShadow_304_675"/>
</filter>
<linearGradient id="paint0_linear_304_675" x1="36.1238" y1="78.6238" x2="36.1238" y2="97.751" gradientUnits="userSpaceOnUse">
<stop stop-color="#D6F0FF"/>
<stop offset="1" stop-color="#A2D5FF"/>
</linearGradient>
</defs>
</svg>
