<svg width="102" height="102" viewBox="0 0 102 102" fill="none" xmlns="http://www.w3.org/2000/svg">
<g filter="url(#filter0_i_253_21)">
<path fill-rule="evenodd" clip-rule="evenodd" d="M51 88.0909C53.4442 88.0909 55.4467 89.9823 55.6236 92.3813L55.6364 92.7273V97.3636C55.6364 99.9242 53.5606 102 51 102C48.5558 102 46.5533 100.109 46.3764 97.7096L46.3636 97.3636V92.7273C46.3636 90.1667 48.4394 88.0909 51 88.0909ZM51 0C53.4442 0 55.4467 1.89135 55.6236 4.29035L55.6364 4.63636V9.27273C55.6364 11.8333 53.5606 13.9091 51 13.9091C48.5558 13.9091 46.5533 12.0177 46.3764 9.61874L46.3636 9.27273V4.63636C46.3636 2.07577 48.4394 0 51 0ZM13.9091 51C13.9091 53.4442 12.0177 55.4467 9.61874 55.6236L9.27273 55.6364H4.63636C2.07577 55.6364 0 53.5606 0 51C0 48.5558 1.89135 46.5533 4.29035 46.3764L4.63636 46.3636H9.27273C11.8333 46.3636 13.9091 48.4394 13.9091 51ZM102 51C102 53.4442 100.109 55.4467 97.7096 55.6236L97.3636 55.6364H92.7273C90.1667 55.6364 88.0909 53.5606 88.0909 51C88.0909 48.5558 89.9823 46.5533 92.3813 46.3764L92.7273 46.3636H97.3636C99.9242 46.3636 102 48.4394 102 51ZM24.7728 24.7728C23.0445 26.5011 20.2911 26.5796 18.4696 25.0084L18.216 24.7728L14.9376 21.4944C13.1269 19.6837 13.1269 16.7482 14.9376 14.9376C16.6659 13.2092 19.4192 13.1307 21.2407 14.7019L21.4944 14.9376L24.7728 18.216C26.5834 20.0266 26.5834 22.9622 24.7728 24.7728ZM87.0624 87.0624C85.3341 88.7908 82.5808 88.8693 80.7593 87.2981L80.5056 87.0624L77.2272 83.784C75.4166 81.9734 75.4166 79.0378 77.2272 77.2272C78.9555 75.4989 81.7089 75.4204 83.5304 76.9916L83.784 77.2272L87.0624 80.5056C88.8731 82.3162 88.8731 85.2518 87.0624 87.0624ZM24.7728 77.2272C26.5011 78.9555 26.5796 81.7089 25.0084 83.5304L24.7728 83.784L21.4944 87.0624C19.6837 88.8731 16.7482 88.8731 14.9376 87.0624C13.2092 85.3341 13.1307 82.5808 14.7019 80.7593L14.9376 80.5056L18.216 77.2272C20.0266 75.4166 22.9622 75.4166 24.7728 77.2272ZM87.0624 14.9376C88.7908 16.6659 88.8693 19.4192 87.2981 21.2407L87.0624 21.4944L83.784 24.7728C81.9734 26.5834 79.0378 26.5834 77.2272 24.7728C75.4989 23.0445 75.4204 20.2911 76.9916 18.4696L77.2272 18.216L80.5056 14.9376C82.3162 13.1269 85.2518 13.1269 87.0624 14.9376ZM51 18.5455C33.0759 18.5455 18.5455 33.0759 18.5455 51C18.5455 68.9241 33.0759 83.4545 51 83.4545C68.9241 83.4545 83.4545 68.9241 83.4545 51C83.4545 33.0759 68.9241 18.5455 51 18.5455Z" fill="url(#paint0_linear_253_21)"/>
</g>
<defs>
<filter id="filter0_i_253_21" x="0" y="0" width="102" height="104" filterUnits="userSpaceOnUse" color-interpolation-filters="sRGB">
<feFlood flood-opacity="0" result="BackgroundImageFix"/>
<feBlend mode="normal" in="SourceGraphic" in2="BackgroundImageFix" result="shape"/>
<feColorMatrix in="SourceAlpha" type="matrix" values="0 0 0 0 0 0 0 0 0 0 0 0 0 0 0 0 0 0 127 0" result="hardAlpha"/>
<feOffset dy="2"/>
<feGaussianBlur stdDeviation="4"/>
<feComposite in2="hardAlpha" operator="arithmetic" k2="-1" k3="1"/>
<feColorMatrix type="matrix" values="0 0 0 0 1 0 0 0 0 1 0 0 0 0 1 0 0 0 1 0"/>
<feBlend mode="overlay" in2="shape" result="effect1_innerShadow_253_21"/>
</filter>
<linearGradient id="paint0_linear_253_21" x1="51" y1="0" x2="51" y2="102" gradientUnits="userSpaceOnUse">
<stop stop-color="#FA6C21"/>
<stop offset="1" stop-color="#FFD358"/>
</linearGradient>
</defs>
</svg>
