<svg width="102" height="102" viewBox="0 0 102 102" fill="none" xmlns="http://www.w3.org/2000/svg">
<g filter="url(#filter0_i_665_83)">
<path fill-rule="evenodd" clip-rule="evenodd" d="M38.25 17C19.4723 17 4.25 32.2223 4.25 51L4.25716 51.7039C4.60531 68.793 17.6005 82.9084 34.4341 84.788L34.9945 84.8449L35.1909 84.897C35.4915 84.9644 35.8041 85 36.125 85H74.375L75.0003 84.9914C87.6818 84.6246 97.75 74.2783 97.75 61.625C97.75 48.7153 87.2847 38.25 74.375 38.25L73.4576 38.2677C72.5428 38.3032 71.636 38.3915 70.741 38.5316L69.9444 38.6707L69.724 38.1136C64.5926 25.5701 52.2828 17 38.25 17Z" fill="url(#paint0_linear_665_83)"/>
</g>
<path fill-rule="evenodd" clip-rule="evenodd" d="M51 29.75C59.2138 29.75 65.8727 36.4075 65.875 44.6207C65.875 45.88 65.7638 47.1336 65.5422 48.3829C64.6826 53.2288 61.0553 57.117 56.2808 58.3106C55.675 58.4621 55.25 59.0064 55.25 59.6308V61.625C55.25 63.9722 53.3472 65.875 51 65.875C48.6528 65.875 46.75 63.9722 46.75 61.625V59.6308C46.75 55.106 49.8295 51.1618 54.2192 50.0644C55.7419 49.6837 56.8987 48.4437 57.1729 46.8983C57.3079 46.1372 57.375 45.3803 57.375 44.625C57.375 41.1042 54.5208 38.25 51 38.25C47.4792 38.25 44.625 41.1042 44.625 44.625C44.625 46.9722 42.7222 48.875 40.375 48.875C38.0278 48.875 36.125 46.9722 36.125 44.625C36.125 36.4098 42.7848 29.75 51 29.75ZM51 76.5C53.3472 76.5 55.25 74.5972 55.25 72.25C55.25 69.9028 53.3472 68 51 68C48.6528 68 46.75 69.9028 46.75 72.25C46.75 74.5972 48.6528 76.5 51 76.5Z" fill="url(#paint1_linear_665_83)"/>
<defs>
<filter id="filter0_i_665_83" x="2.25" y="17" width="95.5" height="72" filterUnits="userSpaceOnUse" color-interpolation-filters="sRGB">
<feFlood flood-opacity="0" result="BackgroundImageFix"/>
<feBlend mode="normal" in="SourceGraphic" in2="BackgroundImageFix" result="shape"/>
<feColorMatrix in="SourceAlpha" type="matrix" values="0 0 0 0 0 0 0 0 0 0 0 0 0 0 0 0 0 0 127 0" result="hardAlpha"/>
<feOffset dx="-2" dy="4"/>
<feGaussianBlur stdDeviation="2"/>
<feComposite in2="hardAlpha" operator="arithmetic" k2="-1" k3="1"/>
<feColorMatrix type="matrix" values="0 0 0 0 1 0 0 0 0 1 0 0 0 0 1 0 0 0 1 0"/>
<feBlend mode="normal" in2="shape" result="effect1_innerShadow_665_83"/>
</filter>
<linearGradient id="paint0_linear_665_83" x1="10.8002" y1="17" x2="98.7855" y2="83.6326" gradientUnits="userSpaceOnUse">
<stop stop-color="white"/>
<stop offset="1" stop-color="#B4E6FB"/>
</linearGradient>
<linearGradient id="paint1_linear_665_83" x1="36.125" y1="29.75" x2="36.125" y2="76.5" gradientUnits="userSpaceOnUse">
<stop stop-color="#8FD5FF"/>
<stop offset="1" stop-color="#227AFF"/>
</linearGradient>
</defs>
</svg>
