<svg width="102" height="102" viewBox="0 0 102 102" fill="none" xmlns="http://www.w3.org/2000/svg">
<g filter="url(#filter0_i_437_40)">
<path fill-rule="evenodd" clip-rule="evenodd" d="M38.25 8.5C19.4723 8.5 4.25 23.7223 4.25 42.5L4.25716 43.2039C4.60531 60.293 17.6005 74.4084 34.4341 76.288L34.9945 76.3449L35.1909 76.397C35.4915 76.4644 35.8041 76.5 36.125 76.5H74.375L75.0003 76.4914C87.6818 76.1246 97.75 65.7783 97.75 53.125C97.75 40.2153 87.2847 29.75 74.375 29.75L73.4576 29.7677C72.5428 29.8032 71.636 29.8915 70.741 30.0316L69.9444 30.1707L69.724 29.6136C64.5926 17.0701 52.2828 8.5 38.25 8.5Z" fill="url(#paint0_linear_437_40)"/>
</g>
<g filter="url(#filter1_i_437_40)">
<path fill-rule="evenodd" clip-rule="evenodd" d="M68.4249 51.85L59.4999 63.75L66.3931 64.3767C68.1463 64.536 69.4383 66.0865 69.2789 67.8396C69.2402 68.2655 69.1162 68.6792 68.9143 69.0561L54.7369 95.5242C52.4645 99.7193 46.1582 97.5484 46.7805 92.9749L46.8324 92.6665L50.1988 75.82L37.9601 73.9255C36.2204 73.6562 35.0284 72.0276 35.2977 70.2879C35.3347 70.0494 35.3986 69.8158 35.4882 69.5917L43.5563 49.4216C44.2017 47.808 45.7644 46.75 47.5023 46.75H65.8749C67.6353 46.75 69.0624 48.1771 69.0624 49.9375C69.0624 50.6272 68.8387 51.2983 68.4249 51.85Z" fill="url(#paint1_linear_437_40)"/>
</g>
<path fill-rule="evenodd" clip-rule="evenodd" d="M30.0539 77.0465C30.9256 74.8672 33.399 73.8072 35.5783 74.6789C37.6539 75.5091 38.7142 77.7921 38.0574 79.8902L37.9459 80.2033L33.6959 90.8283C32.8242 93.0077 30.3508 94.0677 28.1715 93.1959C26.0959 92.3657 25.0356 90.0828 25.6924 87.9846L25.8039 87.6715L30.0539 77.0465ZM72.5539 77.0465C73.4256 74.8672 75.899 73.8072 78.0783 74.6789C80.1539 75.5091 81.2142 77.7921 80.5574 79.8902L80.4459 80.2033L76.1959 90.8283C75.3242 93.0077 72.8508 94.0677 70.6715 93.1959C68.5959 92.3657 67.5356 90.0828 68.1924 87.9846L68.3039 87.6715L72.5539 77.0465Z" fill="url(#paint2_linear_437_40)"/>
<defs>
<filter id="filter0_i_437_40" x="2.25" y="8.5" width="95.5" height="72" filterUnits="userSpaceOnUse" color-interpolation-filters="sRGB">
<feFlood flood-opacity="0" result="BackgroundImageFix"/>
<feBlend mode="normal" in="SourceGraphic" in2="BackgroundImageFix" result="shape"/>
<feColorMatrix in="SourceAlpha" type="matrix" values="0 0 0 0 0 0 0 0 0 0 0 0 0 0 0 0 0 0 127 0" result="hardAlpha"/>
<feOffset dx="-2" dy="4"/>
<feGaussianBlur stdDeviation="2"/>
<feComposite in2="hardAlpha" operator="arithmetic" k2="-1" k3="1"/>
<feColorMatrix type="matrix" values="0 0 0 0 1 0 0 0 0 1 0 0 0 0 1 0 0 0 1 0"/>
<feBlend mode="normal" in2="shape" result="effect1_innerShadow_437_40"/>
</filter>
<filter id="filter1_i_437_40" x="35.2598" y="46.75" width="34.0325" height="53.0171" filterUnits="userSpaceOnUse" color-interpolation-filters="sRGB">
<feFlood flood-opacity="0" result="BackgroundImageFix"/>
<feBlend mode="normal" in="SourceGraphic" in2="BackgroundImageFix" result="shape"/>
<feColorMatrix in="SourceAlpha" type="matrix" values="0 0 0 0 0 0 0 0 0 0 0 0 0 0 0 0 0 0 127 0" result="hardAlpha"/>
<feOffset dy="2"/>
<feGaussianBlur stdDeviation="4"/>
<feComposite in2="hardAlpha" operator="arithmetic" k2="-1" k3="1"/>
<feColorMatrix type="matrix" values="0 0 0 0 1 0 0 0 0 1 0 0 0 0 1 0 0 0 1 0"/>
<feBlend mode="overlay" in2="shape" result="effect1_innerShadow_437_40"/>
</filter>
<linearGradient id="paint0_linear_437_40" x1="10.8002" y1="8.5" x2="98.7855" y2="75.1326" gradientUnits="userSpaceOnUse">
<stop stop-color="white"/>
<stop offset="1" stop-color="#B4E6FB"/>
</linearGradient>
<linearGradient id="paint1_linear_437_40" x1="52.276" y1="46.75" x2="52.276" y2="97.7671" gradientUnits="userSpaceOnUse">
<stop stop-color="#FA6C21"/>
<stop offset="1" stop-color="#FFD358"/>
</linearGradient>
<linearGradient id="paint2_linear_437_40" x1="25.4988" y1="74.3738" x2="25.4988" y2="93.501" gradientUnits="userSpaceOnUse">
<stop stop-color="#4CAFFF"/>
<stop offset="1" stop-color="#8FD5FF"/>
</linearGradient>
</defs>
</svg>
