<svg width="15" height="20" viewBox="0 0 15 20" fill="none" xmlns="http://www.w3.org/2000/svg">
<path d="M0 11.73C0 10.85 0.24 9.84 0.72 8.7C1.2 7.56 1.82 6.45 2.58 5.39C4.14 3.33 5.5 1.77 6.64 0.72L7.39 0C7.64 0.26 7.92 0.5 8.22 0.72C8.63 1.14 9.26 1.83 10.1 2.81C10.94 3.79 11.67 4.66 12.27 5.46C12.98 6.47 13.59 7.56 14.08 8.71C14.57 9.86 14.82 10.87 14.82 11.74C14.82 12.74 14.63 13.69 14.24 14.6C13.85 15.51 13.33 16.3 12.67 16.96C12.01 17.62 11.22 18.15 10.3 18.54C9.38 18.93 8.41 19.13 7.39 19.13C6.39 19.13 5.44 18.94 4.53 18.56C3.62 18.18 2.83 17.67 2.17 17.01C1.51 16.36 0.98 15.57 0.59 14.66C0.2 13.75 0 12.77 0 11.73ZM2.26 8.8C2.26 9.63 2.43 10.29 2.78 10.79C3.13 11.28 3.66 11.53 4.37 11.53C5.09 11.53 5.62 11.28 5.98 10.79C6.33 10.3 6.51 9.64 6.52 8.8C6.51 7.96 6.33 7.3 5.98 6.8C5.63 6.31 5.09 6.06 4.37 6.06C3.66 6.06 3.13 6.31 2.78 6.8C2.43 7.3 2.26 7.96 2.26 8.8ZM3.83 8.8C3.83 8.65 3.83 8.53 3.83 8.45C3.83 8.37 3.84 8.26 3.85 8.12C3.86 7.98 3.87 7.87 3.9 7.8C3.93 7.73 3.95 7.64 3.99 7.56C4.03 7.48 4.08 7.41 4.14 7.38C4.21 7.34 4.28 7.32 4.37 7.32C4.51 7.32 4.62 7.36 4.7 7.44C4.78 7.52 4.84 7.65 4.87 7.82C4.9 8 4.92 8.14 4.93 8.27C4.94 8.4 4.94 8.57 4.94 8.79C4.94 9.02 4.94 9.19 4.93 9.31C4.92 9.43 4.9 9.58 4.87 9.76C4.84 9.93 4.78 10.06 4.7 10.14C4.62 10.22 4.51 10.26 4.37 10.26C4.28 10.26 4.21 10.24 4.14 10.2C4.07 10.16 4.02 10.1 3.99 10.02C3.95 9.94 3.92 9.85 3.9 9.78C3.88 9.7 3.86 9.59 3.85 9.46C3.84 9.32 3.83 9.21 3.83 9.14C3.83 9.07 3.83 8.95 3.83 8.8ZM4.42 16.55H5.74L10.73 5.81H9.38L4.42 16.55ZM8.72 13.56C8.73 14.4 8.92 15.06 9.27 15.56C9.62 16.05 10.16 16.3 10.87 16.3C11.59 16.3 12.12 16.05 12.47 15.56C12.82 15.07 12.99 14.4 13 13.56C12.99 12.72 12.82 12.06 12.47 11.57C12.12 11.08 11.59 10.83 10.87 10.83C10.16 10.83 9.62 11.08 9.27 11.57C8.91 12.06 8.73 12.72 8.72 13.56ZM10.29 13.56C10.29 13.33 10.29 13.16 10.3 13.04C10.31 12.92 10.33 12.77 10.36 12.59C10.39 12.41 10.45 12.29 10.53 12.21C10.61 12.13 10.72 12.09 10.86 12.09C10.95 12.09 11.03 12.11 11.1 12.15C11.17 12.19 11.22 12.25 11.26 12.34C11.3 12.43 11.33 12.51 11.36 12.58C11.39 12.65 11.4 12.76 11.41 12.9L11.42 13.22V13.56C11.42 13.72 11.42 13.84 11.42 13.91L11.41 14.23L11.36 14.55L11.26 14.79L11.1 14.98L10.86 15.04C10.72 15.04 10.61 15 10.53 14.92C10.45 14.84 10.39 14.71 10.36 14.54C10.33 14.36 10.31 14.21 10.3 14.09C10.29 13.97 10.29 13.79 10.29 13.56Z" fill="black"/>
</svg>
