<svg width="78" height="81" viewBox="0 0 78 81" fill="none" xmlns="http://www.w3.org/2000/svg">
    <g filter="url(#filter0_d_196_28)">
        <g filter="url(#filter1_i_196_28)">
            <path fill-rule="evenodd" clip-rule="evenodd"
                  d="M38.8333 63.3333C40.5027 63.3333 41.8704 64.6251 41.9913 66.2637L42 66.5V69.6667C42 71.4156 40.5822 72.8333 38.8333 72.8333C37.1639 72.8333 35.7962 71.5415 35.6754 69.903L35.6667 69.6667V66.5C35.6667 64.7511 37.0844 63.3333 38.8333 63.3333ZM38.8333 3.16666C40.5027 3.16666 41.8704 4.45846 41.9913 6.09699L42 6.33332V9.49999C42 11.2489 40.5822 12.6667 38.8333 12.6667C37.1639 12.6667 35.7962 11.3749 35.6754 9.73632L35.6667 9.49999V6.33332C35.6667 4.58442 37.0844 3.16666 38.8333 3.16666ZM13.5 38C13.5 39.6694 12.2082 41.0371 10.5697 41.158L10.3333 41.1667H7.16667C5.41777 41.1667 4 39.7489 4 38C4 36.3306 5.29181 34.9629 6.93033 34.842L7.16667 34.8333H10.3333C12.0822 34.8333 13.5 36.2511 13.5 38ZM73.6667 38C73.6667 39.6694 72.3749 41.0371 70.7363 41.158L70.5 41.1667H67.3333C65.5844 41.1667 64.1667 39.7489 64.1667 38C64.1667 36.3306 65.4585 34.9629 67.097 34.842L67.3333 34.8333H70.5C72.2489 34.8333 73.6667 36.2511 73.6667 38ZM20.92 20.0866C19.7395 21.2671 17.859 21.3207 16.6149 20.2476L16.4416 20.0866L14.2024 17.8474C12.9658 16.6108 12.9658 14.6058 14.2024 13.3691C15.3829 12.1887 17.2634 12.135 18.5075 13.2081L18.6808 13.3691L20.92 15.6083C22.1566 16.8449 22.1566 18.85 20.92 20.0866ZM63.4642 62.6309C62.2838 63.8113 60.4032 63.865 59.1591 62.7919L58.9859 62.6309L56.7467 60.3917C55.5101 59.155 55.5101 57.15 56.7467 55.9134C57.9272 54.7329 59.8077 54.6793 61.0518 55.7524L61.2251 55.9134L63.4642 58.1525C64.7009 59.3892 64.7009 61.3942 63.4642 62.6309ZM20.92 55.9134C22.1004 57.0938 22.1541 58.9744 21.0809 60.2185L20.92 60.3917L18.6808 62.6309C17.4441 63.8675 15.4391 63.8675 14.2024 62.6309C13.022 61.4504 12.9683 59.5699 14.0415 58.3258L14.2024 58.1525L16.4416 55.9134C17.6783 54.6767 19.6833 54.6767 20.92 55.9134ZM63.4642 13.3691C64.6447 14.5496 64.6983 16.4301 63.6252 17.6742L63.4642 17.8474L61.2251 20.0866C59.9884 21.3233 57.9834 21.3233 56.7467 20.0866C55.5663 18.9062 55.5126 17.0256 56.5857 15.7815L56.7467 15.6083L58.9859 13.3691C60.2225 12.1324 62.2276 12.1324 63.4642 13.3691ZM38.8333 15.8333C26.5911 15.8333 16.6667 25.7577 16.6667 38C16.6667 50.2423 26.5911 60.1667 38.8333 60.1667C51.0756 60.1667 61 50.2423 61 38C61 25.7577 51.0756 15.8333 38.8333 15.8333Z"
                  fill="url(#paint0_linear_196_28)"/>
        </g>
    </g>
    <defs>
        <filter id="filter0_d_196_28" x="-3.16666" y="0" width="84" height="84" filterUnits="userSpaceOnUse"
                color-interpolation-filters="sRGB">
            <feFlood flood-opacity="0" result="BackgroundImageFix"/>
            <feColorMatrix in="SourceAlpha" type="matrix" values="0 0 0 0 0 0 0 0 0 0 0 0 0 0 0 0 0 0 127 0"
                           result="hardAlpha"/>
            <feOffset dy="4"/>
            <feGaussianBlur stdDeviation="2"/>
            <feComposite in2="hardAlpha" operator="out"/>
            <feColorMatrix type="matrix" values="0 0 0 0 0 0 0 0 0 0 0 0 0 0 0 0 0 0 0.25 0"/>
            <feBlend mode="normal" in2="BackgroundImageFix" result="effect1_dropShadow_196_28"/>
            <feBlend mode="normal" in="SourceGraphic" in2="effect1_dropShadow_196_28" result="shape"/>
        </filter>
        <filter id="filter1_i_196_28" x="4" y="3.16666" width="69.6667" height="71.6667" filterUnits="userSpaceOnUse"
                color-interpolation-filters="sRGB">
            <feFlood flood-opacity="0" result="BackgroundImageFix"/>
            <feBlend mode="normal" in="SourceGraphic" in2="BackgroundImageFix" result="shape"/>
            <feColorMatrix in="SourceAlpha" type="matrix" values="0 0 0 0 0 0 0 0 0 0 0 0 0 0 0 0 0 0 127 0"
                           result="hardAlpha"/>
            <feOffset dy="2"/>
            <feGaussianBlur stdDeviation="4"/>
            <feComposite in2="hardAlpha" operator="arithmetic" k2="-1" k3="1"/>
            <feColorMatrix type="matrix" values="0 0 0 0 1 0 0 0 0 1 0 0 0 0 1 0 0 0 1 0"/>
            <feBlend mode="overlay" in2="shape" result="effect1_innerShadow_196_28"/>
        </filter>
        <linearGradient id="paint0_linear_196_28" x1="38.8333" y1="3.16666" x2="38.8333" y2="72.8333"
                        gradientUnits="userSpaceOnUse">
            <stop stop-color="#FA6C21"/>
            <stop offset="1" stop-color="#FFD358"/>
        </linearGradient>
    </defs>
</svg>
