<svg width="25" height="22" viewBox="0 0 25 22" fill="none" xmlns="http://www.w3.org/2000/svg">
<path d="M0 12.12C0 11.84 0.0999999 11.62 0.3 11.44C0.47 11.26 0.7 11.18 0.98 11.18H3.29C3.56 11.18 3.78 11.27 3.96 11.45C4.13 11.63 4.22 11.85 4.22 12.12C4.22 12.4 4.13 12.64 3.95 12.83C3.77 13.02 3.55 13.12 3.29 13.12H0.99C0.72 13.12 0.49 13.02 0.3 12.82C0.0999999 12.62 0 12.39 0 12.12ZM3.29 4.26C3.29 3.98 3.37 3.75 3.54 3.58C3.74 3.38 3.97 3.28 4.24 3.28C4.53 3.28 4.75 3.38 4.92 3.58L6.54 5.21C7 5.65 7 6.1 6.54 6.56C6.35 6.75 6.14 6.84 5.89 6.84C5.67 6.84 5.45 6.75 5.21 6.56L3.55 4.94C3.38 4.76 3.29 4.53 3.29 4.26ZM5.26 17.54C5.26 17.28 5.36 17.05 5.56 16.85C5.74 16.67 5.97 16.58 6.24 16.58H9.46C9.57 16.58 9.66 16.6 9.74 16.66L12.09 18.88L14.48 16.65C14.55 16.6 14.65 16.57 14.77 16.57H18.07C18.34 16.57 18.57 16.66 18.76 16.85C18.95 17.04 19.05 17.27 19.05 17.53C19.05 17.8 18.95 18.03 18.76 18.22C18.57 18.41 18.34 18.51 18.07 18.51H15.39L12.25 21.35C12.13 21.44 12.02 21.44 11.92 21.35L8.84 18.51H6.24C5.97 18.51 5.74 18.41 5.55 18.22C5.36 18.04 5.26 17.81 5.26 17.54ZM6.2 12.12C6.2 13.11 6.39 13.99 6.78 14.74C6.84 14.85 6.93 14.9 7.05 14.9H8.92C9 14.9 9.05 14.88 9.07 14.83C9.09 14.78 9.06 14.72 9 14.65C8.41 13.91 8.11 13.06 8.11 12.12C8.11 11.02 8.5 10.08 9.29 9.31C10.08 8.54 11.03 8.15 12.14 8.15C13.24 8.15 14.18 8.54 14.97 9.31C15.75 10.09 16.15 11.02 16.15 12.11C16.15 13.05 15.85 13.9 15.26 14.64C15.19 14.71 15.17 14.77 15.19 14.82C15.21 14.87 15.26 14.89 15.34 14.89H17.22C17.35 14.89 17.43 14.84 17.46 14.73C17.87 13.95 18.08 13.07 18.08 12.11C18.08 11.32 17.92 10.55 17.61 9.82C17.3 9.09 16.87 8.45 16.34 7.92C15.81 7.39 15.18 6.97 14.45 6.65C13.72 6.33 12.95 6.18 12.15 6.18C11.35 6.18 10.58 6.34 9.85 6.65C9.12 6.97 8.49 7.39 7.96 7.92C7.43 8.45 7.01 9.08 6.69 9.82C6.37 10.56 6.2 11.33 6.2 12.12ZM11.16 3.31V0.98C11.16 0.71 11.26 0.48 11.45 0.29C11.64 0.1 11.87 0 12.14 0C12.41 0 12.64 0.1 12.83 0.29C13.02 0.48 13.12 0.71 13.12 0.98V3.3C13.12 3.57 13.02 3.8 12.83 3.99C12.64 4.18 12.41 4.28 12.14 4.28C11.87 4.28 11.64 4.18 11.45 3.99C11.25 3.8 11.16 3.58 11.16 3.31ZM17.43 5.89C17.43 5.61 17.52 5.38 17.69 5.22L19.32 3.59C19.48 3.39 19.71 3.29 20 3.29C20.27 3.29 20.5 3.39 20.68 3.58C20.86 3.77 20.95 4 20.95 4.27C20.95 4.55 20.87 4.78 20.7 4.95L19.04 6.58C18.81 6.77 18.58 6.86 18.35 6.86C18.09 6.86 17.87 6.77 17.69 6.58C17.52 6.39 17.43 6.16 17.43 5.89ZM20.02 12.12C20.02 11.85 20.11 11.63 20.28 11.45C20.45 11.27 20.68 11.18 20.95 11.18H23.27C23.54 11.18 23.77 11.27 23.96 11.45C24.15 11.63 24.25 11.85 24.25 12.12C24.25 12.39 24.15 12.62 23.96 12.82C23.77 13.02 23.54 13.12 23.27 13.12H20.95C20.69 13.12 20.47 13.02 20.29 12.83C20.11 12.64 20.02 12.4 20.02 12.12Z" fill="black"/>
</svg>
