<svg width="11" height="23" viewBox="0 0 11 23" fill="none" xmlns="http://www.w3.org/2000/svg">
<path d="M0 17.01C0 16.16 0.2 15.37 0.59 14.63C0.98 13.89 1.53 13.28 2.24 12.79V2.87C2.24 2.07 2.51 1.39 3.06 0.84C3.61 0.29 4.29 0 5.09 0C5.9 0 6.58 0.28 7.13 0.83C7.68 1.39 7.96 2.06 7.96 2.86V12.78C8.67 13.27 9.21 13.89 9.6 14.62C9.99 15.35 10.18 16.15 10.18 17C10.18 17.92 9.95 18.78 9.5 19.56C9.05 20.34 8.43 20.96 7.65 21.41C6.87 21.86 6.02 22.09 5.09 22.09C4.17 22.09 3.32 21.86 2.54 21.41C1.76 20.96 1.14 20.34 0.68 19.56C0.22 18.78 0 17.93 0 17.01ZM1.76 17.01C1.76 17.94 2.09 18.74 2.74 19.4C3.39 20.06 4.18 20.39 5.1 20.39C6.03 20.39 6.83 20.06 7.5 19.39C8.17 18.72 8.51 17.93 8.51 17.02C8.51 16.4 8.35 15.82 8.03 15.29C7.71 14.76 7.27 14.35 6.71 14.06L6.43 13.92C6.33 13.88 6.28 13.78 6.28 13.63V2.87C6.28 2.55 6.17 2.28 5.94 2.06C5.71 1.85 5.43 1.74 5.09 1.74C4.77 1.74 4.49 1.85 4.26 2.06C4.03 2.27 3.92 2.54 3.92 2.87V13.61C3.92 13.76 3.87 13.86 3.78 13.9L3.51 14.04C2.96 14.33 2.53 14.74 2.22 15.27C1.91 15.8 1.76 16.37 1.76 17.01ZM2.54 17.01C2.54 17.72 2.78 18.33 3.27 18.83C3.76 19.33 4.34 19.58 5.03 19.58C5.72 19.58 6.31 19.33 6.82 18.83C7.33 18.33 7.58 17.72 7.58 17.02C7.58 16.39 7.36 15.83 6.93 15.35C6.5 14.87 5.97 14.58 5.35 14.5V7.14C5.35 7.08 5.32 7.01 5.25 6.95C5.18 6.88 5.11 6.85 5.03 6.85C4.94 6.85 4.87 6.88 4.82 6.93C4.77 6.99 4.74 7.05 4.74 7.14V14.48C4.13 14.57 3.61 14.85 3.18 15.33C2.75 15.82 2.54 16.37 2.54 17.01Z" fill="black"/>
</svg>
