<svg width="25" height="21" viewBox="0 0 25 21" fill="none" xmlns="http://www.w3.org/2000/svg">
<path d="M0.0548382 13.9663C0.0843945 13.747 0.126112 13.5322 0.177326 13.3223L0.141811 13.3175C0.141811 13.3175 2.19016 7.57668 2.61658 5.54963C2.97367 4.01553 4.01679 2.81216 5.34247 2.26046C5.37624 2.13267 5.40425 2.01747 5.42513 1.91913C5.71405 0.675754 6.85315 -0.158063 8.07796 0.0252548C9.30263 0.208624 10.1781 1.34418 10.1292 2.62351C10.1194 2.7889 10.1066 3.00162 10.0921 3.24338C11.0051 4.16335 11.5427 5.47454 11.4891 6.87798C11.4868 6.91716 11.4844 6.95717 11.4821 6.99881H13.3253C13.3231 6.95717 13.3207 6.91716 13.3182 6.87798C13.2647 5.47449 13.802 4.16335 14.7153 3.24338C14.7008 3.00167 14.688 2.7889 14.6782 2.62351C14.6294 1.34418 15.5046 0.208624 16.7295 0.0252548C17.9542 -0.158114 19.0934 0.675754 19.3823 1.91913C19.4032 2.01752 19.4312 2.13267 19.465 2.26046C20.7906 2.8121 21.8337 4.01553 22.1909 5.54963C22.6173 7.57668 24.6657 13.3175 24.6657 13.3175L24.6301 13.3223C24.6813 13.5322 24.723 13.747 24.7524 13.9663C25.1771 17.1354 23.0907 20.0688 20.0929 20.5176C17.0951 20.9664 14.3203 18.761 13.8959 15.5918C13.8665 15.3722 13.8503 15.1541 13.8443 14.9373L13.8088 14.943C13.8088 14.943 13.7993 14.7879 13.7827 14.5196H11.0247C11.0081 14.7879 10.9987 14.943 10.9987 14.943L10.9631 14.9373C10.9571 15.1541 10.9409 15.3722 10.9116 15.5918C10.487 18.761 7.71234 20.9664 4.71454 20.5176C1.71635 20.0689 -0.369646 17.1354 0.0548382 13.9663ZM15.7051 15.3211C15.9884 17.4335 17.838 18.9043 19.8368 18.605C21.8353 18.3057 23.2261 16.3497 22.9429 14.2374C22.6599 12.1247 20.8102 10.6543 18.8116 10.9535C16.8129 11.2529 15.4222 13.208 15.7051 15.3211ZM4.97066 18.605C6.96939 18.9043 8.81898 17.4335 9.10233 15.3211C9.38524 13.208 7.99453 11.2529 5.9958 10.9535C3.99707 10.6543 2.14747 12.1246 1.86446 14.2374C1.58136 16.3498 2.97212 18.3057 4.97066 18.605Z" fill="black"/>
</svg>
