<svg width="102" height="109" viewBox="0 0 102 109" fill="none" xmlns="http://www.w3.org/2000/svg">
<g filter="url(#filter0_i_291_1045)">
<path fill-rule="evenodd" clip-rule="evenodd" d="M70.125 14.8748C80.6874 14.8748 89.25 23.4374 89.25 33.9998C89.25 44.5623 80.6874 53.1248 70.125 53.1248C59.5626 53.1248 51 44.5623 51 33.9998C51 23.4374 59.5626 14.8748 70.125 14.8748ZM95.2376 34.1778C97.5848 34.1778 99.4876 36.0806 99.4876 38.4278C99.4876 40.775 97.5848 42.6778 95.2376 42.6778C92.8904 42.6778 90.9876 40.775 90.9876 38.4278C90.9876 36.0806 92.8904 34.1778 95.2376 34.1778ZM91.0134 15.1236C93.3606 15.1236 95.2634 17.0264 95.2634 19.3736C95.2634 21.7208 93.3606 23.6236 91.0134 23.6236C88.6662 23.6236 86.7634 21.7208 86.7634 19.3736C86.7634 17.0264 88.6662 15.1236 91.0134 15.1236ZM55.4988 8.86143C57.846 8.86143 59.7488 10.7642 59.7488 13.1114C59.7488 15.4586 57.846 17.3614 55.4988 17.3614C53.1516 17.3614 51.2488 15.4586 51.2488 13.1114C51.2488 10.7642 53.1516 8.86143 55.4988 8.86143ZM74.553 4.63721C76.9002 4.63721 78.803 6.54 78.803 8.88721C78.803 11.2344 76.9002 13.1372 74.553 13.1372C72.2058 13.1372 70.303 11.2344 70.303 8.88721C70.303 6.54 72.2058 4.63721 74.553 4.63721Z" fill="url(#paint0_linear_291_1045)"/>
</g>
<g filter="url(#filter1_i_291_1045)">
<path fill-rule="evenodd" clip-rule="evenodd" d="M38.25 19.125C19.4723 19.125 4.25 34.3473 4.25 53.125L4.25716 53.8289C4.60531 70.918 17.6005 85.0334 34.4341 86.913L34.9945 86.9699L35.1909 87.022C35.4915 87.0894 35.8041 87.125 36.125 87.125H74.375L75.0003 87.1164C87.6818 86.7496 97.75 76.4033 97.75 63.75C97.75 50.8403 87.2847 40.375 74.375 40.375L73.4576 40.3927C72.5428 40.4282 71.636 40.5165 70.741 40.6566L69.9444 40.7957L69.7241 40.2386C64.5926 27.6951 52.2828 19.125 38.25 19.125Z" fill="url(#paint1_linear_291_1045)"/>
</g>
<path fill-rule="evenodd" clip-rule="evenodd" d="M35.1587 92.2702C37.0889 93.0081 38.0749 95.0373 37.4641 96.9022L37.3605 97.1805L33.4082 106.624C32.5975 108.561 30.2974 109.504 28.2708 108.729C26.3406 107.991 25.3546 105.962 25.9653 104.097L26.069 103.818L30.0213 94.3746C30.8319 92.4375 33.1321 91.4954 35.1587 92.2702ZM30.2184 75.2712C32.1485 76.0091 33.1346 78.0383 32.5238 79.9032L32.4201 80.1815L28.4678 89.6254C27.6572 91.5625 25.3571 92.5046 23.3304 91.7298C21.4002 90.9919 20.4142 88.9627 21.025 87.0978L21.1286 86.8195L25.0809 77.3756C25.8916 75.4385 28.1917 74.4964 30.2184 75.2712ZM12.236 94.3746C13.0467 92.4375 15.3468 91.4954 17.3735 92.2702C19.3036 93.0081 20.2896 95.0373 19.6789 96.9022L19.5752 97.1805L15.6229 106.624C14.8123 108.561 12.5122 109.504 10.4855 108.729C8.55534 107.991 7.56931 105.962 8.18006 104.097L8.28373 103.818L12.236 94.3746ZM52.944 92.2702C54.8741 93.0081 55.8602 95.0373 55.2494 96.9022L55.1457 97.1805L51.1935 106.624C50.3828 108.561 48.0827 109.504 46.056 108.729C44.1259 107.991 43.1398 105.962 43.7506 104.097L43.8543 103.818L47.8065 94.3746C48.6172 92.4375 50.9173 91.4954 52.944 92.2702ZM48.0036 75.2712C49.9338 76.0091 50.9198 78.0383 50.3091 79.9032L50.2054 80.1815L46.2531 89.6254C45.4424 91.5625 43.1423 92.5046 41.1157 91.7298C39.1855 90.9919 38.1995 88.9627 38.8102 87.0978L38.9139 86.8195L42.8662 77.3756C43.6769 75.4385 45.977 74.4964 48.0036 75.2712ZM70.7292 92.2702C72.6594 93.0081 73.6454 95.0373 73.0347 96.9022L72.931 97.1805L68.9787 106.624C68.1681 108.561 65.8679 109.504 63.8413 108.729C61.9111 107.991 60.9251 105.962 61.5359 104.097L61.6395 103.818L65.5918 94.3746C66.4025 92.4375 68.7026 91.4954 70.7292 92.2702ZM65.7889 75.2712C67.7191 76.0091 68.7051 78.0383 68.0943 79.9032L67.9907 80.1815L64.0384 89.6254C63.2277 91.5625 60.9276 92.5046 58.9009 91.7298C56.9708 90.9919 55.9847 88.9627 56.5955 87.0978L56.6992 86.8195L60.6515 77.3756C61.4621 75.4385 63.7622 74.4964 65.7889 75.2712ZM88.5145 92.2702C90.4447 93.0081 91.4307 95.0373 90.8199 96.9022L90.7163 97.1805L86.764 106.624C85.9533 108.561 83.6532 109.504 81.6265 108.729C79.6964 107.991 78.7104 105.962 79.3211 104.097L79.4248 103.818L83.3771 94.3746C84.1877 92.4375 86.4878 91.4954 88.5145 92.2702ZM83.5742 75.2712C85.5043 76.0091 86.4903 78.0383 85.8796 79.9032L85.7759 80.1815L81.8236 89.6254C81.013 91.5625 78.7129 92.5046 76.6862 91.7298C74.756 90.9919 73.77 88.9627 74.3808 87.0978L74.4844 86.8195L78.4367 77.3756C79.2474 75.4385 81.5475 74.4964 83.5742 75.2712Z" fill="url(#paint2_linear_291_1045)"/>
<defs>
<filter id="filter0_i_291_1045" x="51" y="4.63721" width="48.4875" height="50.4878" filterUnits="userSpaceOnUse" color-interpolation-filters="sRGB">
<feFlood flood-opacity="0" result="BackgroundImageFix"/>
<feBlend mode="normal" in="SourceGraphic" in2="BackgroundImageFix" result="shape"/>
<feColorMatrix in="SourceAlpha" type="matrix" values="0 0 0 0 0 0 0 0 0 0 0 0 0 0 0 0 0 0 127 0" result="hardAlpha"/>
<feOffset dy="2"/>
<feGaussianBlur stdDeviation="4"/>
<feComposite in2="hardAlpha" operator="arithmetic" k2="-1" k3="1"/>
<feColorMatrix type="matrix" values="0 0 0 0 1 0 0 0 0 1 0 0 0 0 1 0 0 0 1 0"/>
<feBlend mode="overlay" in2="shape" result="effect1_innerShadow_291_1045"/>
</filter>
<filter id="filter1_i_291_1045" x="2.25" y="19.125" width="95.5" height="72" filterUnits="userSpaceOnUse" color-interpolation-filters="sRGB">
<feFlood flood-opacity="0" result="BackgroundImageFix"/>
<feBlend mode="normal" in="SourceGraphic" in2="BackgroundImageFix" result="shape"/>
<feColorMatrix in="SourceAlpha" type="matrix" values="0 0 0 0 0 0 0 0 0 0 0 0 0 0 0 0 0 0 127 0" result="hardAlpha"/>
<feOffset dx="-2" dy="4"/>
<feGaussianBlur stdDeviation="2"/>
<feComposite in2="hardAlpha" operator="arithmetic" k2="-1" k3="1"/>
<feColorMatrix type="matrix" values="0 0 0 0 1 0 0 0 0 1 0 0 0 0 1 0 0 0 1 0"/>
<feBlend mode="normal" in2="shape" result="effect1_innerShadow_291_1045"/>
</filter>
<linearGradient id="paint0_linear_291_1045" x1="75.2438" y1="4.63721" x2="75.2438" y2="53.1248" gradientUnits="userSpaceOnUse">
<stop stop-color="#FFD358"/>
<stop offset="1" stop-color="#FA6C21"/>
</linearGradient>
<linearGradient id="paint1_linear_291_1045" x1="10.8002" y1="19.125" x2="98.7855" y2="85.7576" gradientUnits="userSpaceOnUse">
<stop stop-color="white"/>
<stop offset="1" stop-color="#B4E6FB"/>
</linearGradient>
<linearGradient id="paint2_linear_291_1045" x1="8" y1="75" x2="8" y2="109" gradientUnits="userSpaceOnUse">
<stop stop-color="#4CAFFF"/>
<stop offset="1" stop-color="#8FD5FF"/>
</linearGradient>
</defs>
</svg>
