<svg width="102" height="102" viewBox="0 0 102 102" fill="none" xmlns="http://www.w3.org/2000/svg">
<g filter="url(#filter0_i_422_40)">
<path fill-rule="evenodd" clip-rule="evenodd" d="M38.25 8.5C19.4723 8.5 4.25 23.7223 4.25 42.5L4.25716 43.2039C4.60531 60.293 17.6005 74.4084 34.4341 76.288L34.9945 76.3449L35.1909 76.397C35.4915 76.4644 35.8041 76.5 36.125 76.5H74.375L75.0003 76.4914C87.6818 76.1246 97.75 65.7783 97.75 53.125C97.75 40.2153 87.2847 29.75 74.375 29.75L73.4576 29.7677C72.5428 29.8032 71.636 29.8915 70.741 30.0316L69.9444 30.1707L69.724 29.6136C64.5926 17.0701 52.2828 8.5 38.25 8.5Z" fill="url(#paint0_linear_422_40)"/>
</g>
<path fill-rule="evenodd" clip-rule="evenodd" d="M35.8223 77.4119L39.7191 83.9066C40.1229 84.5796 40.1229 85.4203 39.7191 86.0932L35.8223 92.588C35.2185 93.5944 33.9132 93.9207 32.9068 93.3169C32.6077 93.1374 32.3574 92.8871 32.1779 92.588L28.2811 86.0932C27.8773 85.4203 27.8773 84.5796 28.2811 83.9066L32.1779 77.4119C32.7818 76.4055 34.0871 76.0792 35.0934 76.683C35.3925 76.8625 35.6428 77.1128 35.8223 77.4119ZM52.8223 77.4119L56.7191 83.9066C57.1229 84.5796 57.1229 85.4203 56.7191 86.0932L52.8223 92.588C52.2185 93.5944 50.9132 93.9207 49.9068 93.3169C49.6077 93.1374 49.3574 92.8871 49.1779 92.588L45.2811 86.0932C44.8773 85.4203 44.8773 84.5796 45.2811 83.9066L49.1779 77.4119C49.7818 76.4055 51.0871 76.0792 52.0934 76.683C52.3925 76.8625 52.6428 77.1128 52.8223 77.4119ZM69.8223 77.4119L73.7191 83.9066C74.1229 84.5796 74.1229 85.4203 73.7191 86.0932L69.8223 92.588C69.2185 93.5944 67.9132 93.9207 66.9068 93.3169C66.6077 93.1374 66.3574 92.8871 66.1779 92.588L62.2811 86.0932C61.8773 85.4203 61.8773 84.5796 62.2811 83.9066L66.1779 77.4119C66.7818 76.4055 68.0871 76.0792 69.0934 76.683C69.3925 76.8625 69.6428 77.1128 69.8223 77.4119Z" fill="url(#paint1_linear_422_40)"/>
<defs>
<filter id="filter0_i_422_40" x="2.25" y="8.5" width="95.5" height="72" filterUnits="userSpaceOnUse" color-interpolation-filters="sRGB">
<feFlood flood-opacity="0" result="BackgroundImageFix"/>
<feBlend mode="normal" in="SourceGraphic" in2="BackgroundImageFix" result="shape"/>
<feColorMatrix in="SourceAlpha" type="matrix" values="0 0 0 0 0 0 0 0 0 0 0 0 0 0 0 0 0 0 127 0" result="hardAlpha"/>
<feOffset dx="-2" dy="4"/>
<feGaussianBlur stdDeviation="2"/>
<feComposite in2="hardAlpha" operator="arithmetic" k2="-1" k3="1"/>
<feColorMatrix type="matrix" values="0 0 0 0 1 0 0 0 0 1 0 0 0 0 1 0 0 0 1 0"/>
<feBlend mode="normal" in2="shape" result="effect1_innerShadow_422_40"/>
</filter>
<linearGradient id="paint0_linear_422_40" x1="10.8002" y1="8.5" x2="98.7855" y2="75.1326" gradientUnits="userSpaceOnUse">
<stop stop-color="white"/>
<stop offset="1" stop-color="#B4E6FB"/>
</linearGradient>
<linearGradient id="paint1_linear_422_40" x1="27.9783" y1="76.3799" x2="27.9783" y2="93.62" gradientUnits="userSpaceOnUse">
<stop stop-color="#4CAFFF"/>
<stop offset="1" stop-color="#8FD5FF"/>
</linearGradient>
</defs>
</svg>
