<svg width="102" height="102" viewBox="0 0 102 102" fill="none" xmlns="http://www.w3.org/2000/svg">
<g filter="url(#filter0_i_303_610)">
<path fill-rule="evenodd" clip-rule="evenodd" d="M38.25 19.125C19.4723 19.125 4.25 34.3473 4.25 53.125L4.25716 53.8289C4.60531 70.918 17.6005 85.0334 34.4341 86.913L34.9945 86.9699L35.1909 87.022C35.4915 87.0894 35.8041 87.125 36.125 87.125H74.375L75.0003 87.1164C87.6818 86.7496 97.75 76.4033 97.75 63.75C97.75 50.8403 87.2847 40.375 74.375 40.375L73.4576 40.3927C72.5428 40.4282 71.636 40.5165 70.741 40.6566L69.9444 40.7957L69.7241 40.2386C64.5926 27.6951 52.2828 19.125 38.25 19.125Z" fill="url(#paint0_linear_303_610)"/>
</g>
<path fill-rule="evenodd" clip-rule="evenodd" d="M32.179 81.2965C33.0507 79.1172 35.5241 78.0572 37.7034 78.9289C39.779 79.7591 40.8393 82.0421 40.1825 84.1402L40.0711 84.4533L35.8211 95.0783C34.9493 97.2577 32.476 98.3177 30.2966 97.4459C28.2211 96.6157 27.1608 94.3328 27.8175 92.2346L27.929 91.9215L32.179 81.2965ZM51.304 81.2965C52.1757 79.1172 54.6491 78.0572 56.8284 78.9289C58.904 79.7591 59.9643 82.0421 59.3075 84.1402L59.1961 84.4533L54.9461 95.0783C54.0743 97.2577 51.601 98.3177 49.4216 97.4459C47.3461 96.6157 46.2858 94.3328 46.9425 92.2346L47.054 91.9215L51.304 81.2965ZM70.429 81.2965C71.3007 79.1172 73.7741 78.0572 75.9534 78.9289C78.029 79.7591 79.0893 82.0421 78.4325 84.1402L78.3211 84.4533L74.0711 95.0783C73.1993 97.2577 70.7259 98.3177 68.5466 97.4459C66.4711 96.6157 65.4108 94.3328 66.0675 92.2346L66.179 91.9215L70.429 81.2965Z" fill="url(#paint1_linear_303_610)"/>
<defs>
<filter id="filter0_i_303_610" x="2.25" y="19.125" width="95.5" height="72" filterUnits="userSpaceOnUse" color-interpolation-filters="sRGB">
<feFlood flood-opacity="0" result="BackgroundImageFix"/>
<feBlend mode="normal" in="SourceGraphic" in2="BackgroundImageFix" result="shape"/>
<feColorMatrix in="SourceAlpha" type="matrix" values="0 0 0 0 0 0 0 0 0 0 0 0 0 0 0 0 0 0 127 0" result="hardAlpha"/>
<feOffset dx="-2" dy="4"/>
<feGaussianBlur stdDeviation="2"/>
<feComposite in2="hardAlpha" operator="arithmetic" k2="-1" k3="1"/>
<feColorMatrix type="matrix" values="0 0 0 0 1 0 0 0 0 1 0 0 0 0 1 0 0 0 1 0"/>
<feBlend mode="normal" in2="shape" result="effect1_innerShadow_303_610"/>
</filter>
<linearGradient id="paint0_linear_303_610" x1="10.8002" y1="19.125" x2="98.7855" y2="85.7576" gradientUnits="userSpaceOnUse">
<stop stop-color="white"/>
<stop offset="1" stop-color="#B4E6FB"/>
</linearGradient>
<linearGradient id="paint1_linear_303_610" x1="27.6239" y1="78.6238" x2="27.6239" y2="97.751" gradientUnits="userSpaceOnUse">
<stop stop-color="#4CAFFF"/>
<stop offset="1" stop-color="#8FD5FF"/>
</linearGradient>
</defs>
</svg>
