<svg width="102" height="102" viewBox="0 0 102 102" fill="none" xmlns="http://www.w3.org/2000/svg">
<g filter="url(#filter0_i_305_684)">
<path fill-rule="evenodd" clip-rule="evenodd" d="M38.25 19.125C19.4723 19.125 4.25 34.3473 4.25 53.125L4.25716 53.8289C4.60531 70.918 17.6005 85.0334 34.4341 86.913L34.9945 86.9699L35.1909 87.022C35.4915 87.0894 35.8041 87.125 36.125 87.125H74.375L75.0003 87.1164C87.6818 86.7496 97.75 76.4033 97.75 63.75C97.75 50.8403 87.2847 40.375 74.375 40.375L73.4576 40.3927C72.5428 40.4282 71.636 40.5165 70.741 40.6566L69.9444 40.7957L69.7241 40.2386C64.5926 27.6951 52.2828 19.125 38.25 19.125Z" fill="url(#paint0_linear_305_684)"/>
</g>
<path fill-rule="evenodd" clip-rule="evenodd" d="M40.6789 81.2967C41.5506 79.1174 44.024 78.0574 46.2033 78.9291C48.2789 79.7593 49.3392 82.0423 48.6824 84.1404L48.5709 84.4536L44.3209 95.0786C43.4492 97.2579 40.9758 98.3179 38.7965 97.4462C36.7209 96.616 35.6606 94.333 36.3174 92.2349L36.4289 91.9217L40.6789 81.2967ZM59.8039 81.2967C60.6756 79.1174 63.149 78.0574 65.3283 78.9291C67.4039 79.7593 68.4642 82.0423 67.8074 84.1404L67.6959 84.4536L63.4459 95.0786C62.5742 97.2579 60.1008 98.3179 57.9215 97.4462C55.8459 96.616 54.7856 94.333 55.4424 92.2349L55.5539 91.9217L59.8039 81.2967Z" fill="url(#paint1_linear_305_684)"/>
<defs>
<filter id="filter0_i_305_684" x="2.25" y="19.125" width="95.5" height="72" filterUnits="userSpaceOnUse" color-interpolation-filters="sRGB">
<feFlood flood-opacity="0" result="BackgroundImageFix"/>
<feBlend mode="normal" in="SourceGraphic" in2="BackgroundImageFix" result="shape"/>
<feColorMatrix in="SourceAlpha" type="matrix" values="0 0 0 0 0 0 0 0 0 0 0 0 0 0 0 0 0 0 127 0" result="hardAlpha"/>
<feOffset dx="-2" dy="4"/>
<feGaussianBlur stdDeviation="2"/>
<feComposite in2="hardAlpha" operator="arithmetic" k2="-1" k3="1"/>
<feColorMatrix type="matrix" values="0 0 0 0 1 0 0 0 0 1 0 0 0 0 1 0 0 0 1 0"/>
<feBlend mode="normal" in2="shape" result="effect1_innerShadow_305_684"/>
</filter>
<linearGradient id="paint0_linear_305_684" x1="10.8002" y1="19.125" x2="98.7855" y2="85.7576" gradientUnits="userSpaceOnUse">
<stop stop-color="white"/>
<stop offset="1" stop-color="#B4E6FB"/>
</linearGradient>
<linearGradient id="paint1_linear_305_684" x1="36.1238" y1="78.624" x2="36.1238" y2="97.7513" gradientUnits="userSpaceOnUse">
<stop stop-color="#4CAFFF"/>
<stop offset="1" stop-color="#8FD5FF"/>
</linearGradient>
</defs>
</svg>
