<svg width="102" height="102" viewBox="0 0 102 102" fill="none" xmlns="http://www.w3.org/2000/svg">
<g filter="url(#filter0_i_298_430)">
<path fill-rule="evenodd" clip-rule="evenodd" d="M38.25 19.125C19.4723 19.125 4.25 34.3473 4.25 53.125L4.25716 53.8289C4.60531 70.918 17.6005 85.0334 34.4341 86.913L34.9945 86.9699L35.1909 87.022C35.4915 87.0894 35.8041 87.125 36.125 87.125H74.375L75.0003 87.1164C87.6818 86.7496 97.75 76.4033 97.75 63.75C97.75 50.8403 87.2847 40.375 74.375 40.375L73.4576 40.3927C72.5428 40.4282 71.636 40.5165 70.741 40.6566L69.9444 40.7957L69.7241 40.2386C64.5926 27.6951 52.2828 19.125 38.25 19.125Z" fill="url(#paint0_linear_298_430)"/>
</g>
<path d="M20.5551 79.6727C21.4268 77.4934 23.9002 76.4334 26.0795 77.3051C28.1551 78.1353 29.2154 80.4183 28.5586 82.5164L28.4471 82.8295L24.1972 93.4545C23.3254 95.6339 20.8521 96.6939 18.6727 95.8222C16.5972 94.9919 15.5369 92.709 16.1936 90.6108L16.3051 90.2977L20.5551 79.6727Z" fill="url(#paint1_linear_298_430)"/>
<path d="M39.6801 79.6727C40.5518 77.4934 43.0252 76.4334 45.2045 77.3051C47.2801 78.1353 48.3404 80.4183 47.6836 82.5164L47.5721 82.8295L43.3221 93.4545C42.4504 95.6339 39.977 96.6939 37.7977 95.8222C35.7221 94.9919 34.6618 92.709 35.3186 90.6108L35.4301 90.2977L39.6801 79.6727Z" fill="url(#paint2_linear_298_430)"/>
<path d="M58.8051 79.6727C59.6768 77.4934 62.1502 76.4334 64.3295 77.3051C66.4051 78.1353 67.4654 80.4183 66.8086 82.5164L66.6971 82.8295L62.4471 93.4545C61.5754 95.6339 59.102 96.6939 56.9227 95.8222C54.8471 94.9919 53.7868 92.709 54.4436 90.6108L54.5551 90.2977L58.8051 79.6727Z" fill="url(#paint3_linear_298_430)"/>
<path d="M77.9301 79.6727C78.8018 77.4934 81.2752 76.4334 83.4545 77.3051C85.5301 78.1353 86.5904 80.4183 85.9336 82.5164L85.8221 82.8295L81.5721 93.4545C80.7004 95.6339 78.227 96.6939 76.0477 95.8222C73.9721 94.9919 72.9118 92.709 73.5686 90.6108L73.6801 90.2977L77.9301 79.6727Z" fill="url(#paint4_linear_298_430)"/>
<defs>
<filter id="filter0_i_298_430" x="2.25" y="19.125" width="95.5" height="72" filterUnits="userSpaceOnUse" color-interpolation-filters="sRGB">
<feFlood flood-opacity="0" result="BackgroundImageFix"/>
<feBlend mode="normal" in="SourceGraphic" in2="BackgroundImageFix" result="shape"/>
<feColorMatrix in="SourceAlpha" type="matrix" values="0 0 0 0 0 0 0 0 0 0 0 0 0 0 0 0 0 0 127 0" result="hardAlpha"/>
<feOffset dx="-2" dy="4"/>
<feGaussianBlur stdDeviation="2"/>
<feComposite in2="hardAlpha" operator="arithmetic" k2="-1" k3="1"/>
<feColorMatrix type="matrix" values="0 0 0 0 1 0 0 0 0 1 0 0 0 0 1 0 0 0 1 0"/>
<feBlend mode="normal" in2="shape" result="effect1_innerShadow_298_430"/>
</filter>
<linearGradient id="paint0_linear_298_430" x1="10.8002" y1="19.125" x2="98.7855" y2="85.7576" gradientUnits="userSpaceOnUse">
<stop stop-color="white"/>
<stop offset="1" stop-color="#B4E6FB"/>
</linearGradient>
<linearGradient id="paint1_linear_298_430" x1="16" y1="77" x2="16" y2="96.1273" gradientUnits="userSpaceOnUse">
<stop stop-color="#4CAFFF"/>
<stop offset="1" stop-color="#8FD5FF"/>
</linearGradient>
<linearGradient id="paint2_linear_298_430" x1="16" y1="77" x2="16" y2="96.1273" gradientUnits="userSpaceOnUse">
<stop stop-color="#4CAFFF"/>
<stop offset="1" stop-color="#8FD5FF"/>
</linearGradient>
<linearGradient id="paint3_linear_298_430" x1="16" y1="77" x2="16" y2="96.1273" gradientUnits="userSpaceOnUse">
<stop stop-color="#4CAFFF"/>
<stop offset="1" stop-color="#8FD5FF"/>
</linearGradient>
<linearGradient id="paint4_linear_298_430" x1="16" y1="77" x2="16" y2="96.1273" gradientUnits="userSpaceOnUse">
<stop stop-color="#4CAFFF"/>
<stop offset="1" stop-color="#8FD5FF"/>
</linearGradient>
</defs>
</svg>
