<svg width="21" height="14" viewBox="0 0 21 14" fill="none" xmlns="http://www.w3.org/2000/svg">
<path d="M0 5.04C0 5.22 0.0600001 5.35 0.17 5.44C0.29 5.55 0.43 5.61 0.59 5.61H10.99C11.16 5.61 11.32 5.67 11.45 5.8C11.58 5.92 11.65 6.08 11.65 6.26C11.65 6.44 11.58 6.6 11.45 6.73C11.32 6.86 11.17 6.93 10.99 6.93C10.81 6.93 10.65 6.86 10.52 6.72C10.4 6.61 10.26 6.56 10.12 6.56C9.96 6.56 9.82 6.61 9.71 6.72C9.6 6.83 9.55 6.96 9.55 7.11C9.55 7.27 9.61 7.41 9.72 7.52C10.08 7.88 10.5 8.05 10.99 8.05C11.48 8.05 11.9 7.88 12.25 7.53C12.6 7.18 12.77 6.76 12.77 6.26C12.77 5.77 12.6 5.34 12.25 4.99C11.9 4.64 11.48 4.46 10.99 4.46H0.59C0.43 4.46 0.29 4.52 0.17 4.63C0.0500001 4.75 0 4.88 0 5.04ZM0 3.02C0 3.19 0.0600001 3.32 0.17 3.41C0.29 3.52 0.43 3.57 0.59 3.57H14.4C14.89 3.57 15.32 3.39 15.67 3.05C16.02 2.7 16.19 2.28 16.19 1.78C16.19 1.29 16.02 0.869999 15.67 0.52C15.32 0.17 14.9 0 14.4 0C13.91 0 13.49 0.17 13.13 0.51C13.02 0.63 12.97 0.78 12.97 0.93C12.97 1.09 13.02 1.23 13.13 1.33C13.24 1.43 13.37 1.48 13.53 1.48C13.68 1.48 13.82 1.43 13.94 1.32C14.06 1.2 14.21 1.14 14.4 1.14C14.57 1.14 14.73 1.2 14.86 1.32C14.99 1.44 15.06 1.59 15.06 1.77C15.06 1.95 14.99 2.11 14.86 2.24C14.73 2.37 14.58 2.44 14.4 2.44H0.59C0.43 2.44 0.29 2.5 0.17 2.61C0.0500001 2.72 0 2.86 0 3.02ZM12.72 13.39H19.34L19.74 11.5H16.06V11.47C16.26 11.38 16.55 11.25 16.92 11.1C17.3 10.95 17.61 10.82 17.87 10.72C18.13 10.62 18.42 10.47 18.74 10.28C19.06 10.09 19.31 9.9 19.51 9.71C19.7 9.52 19.87 9.27 20.01 8.96C20.15 8.65 20.22 8.32 20.22 7.96C20.22 7.4 20.08 6.94 19.79 6.56C19.5 6.18 19.14 5.91 18.71 5.75C18.28 5.59 17.79 5.51 17.26 5.51C16.29 5.51 15.5 5.77 14.88 6.29C14.26 6.81 13.9 7.58 13.78 8.6H15.87C15.87 8.23 15.98 7.92 16.19 7.66C16.41 7.4 16.71 7.28 17.1 7.28C17.4 7.28 17.62 7.36 17.77 7.52C17.92 7.68 18 7.86 18 8.06C18 8.18 17.99 8.29 17.97 8.38C17.95 8.47 17.9 8.57 17.82 8.66C17.74 8.75 17.67 8.82 17.61 8.88C17.55 8.94 17.44 9.01 17.27 9.11C17.1 9.2 16.97 9.28 16.87 9.33C16.77 9.38 16.6 9.46 16.34 9.58C15.46 10.01 14.91 10.29 14.7 10.41C13.9 10.89 13.35 11.48 13.04 12.19C12.88 12.55 12.77 12.95 12.72 13.39Z" fill="black"/>
</svg>
