<svg width="21" height="14" viewBox="0 0 21 14" fill="none" xmlns="http://www.w3.org/2000/svg">
<path d="M0 5.04C0 5.22 0.0600001 5.35 0.17 5.44C0.29 5.55 0.43 5.61 0.59 5.61H10.99C11.16 5.61 11.32 5.67 11.45 5.8C11.58 5.92 11.65 6.08 11.65 6.26C11.65 6.44 11.58 6.6 11.45 6.73C11.32 6.86 11.17 6.93 10.99 6.93C10.81 6.93 10.65 6.86 10.52 6.72C10.4 6.61 10.26 6.56 10.12 6.56C9.96 6.56 9.82 6.61 9.71 6.72C9.6 6.83 9.55 6.96 9.55 7.11C9.55 7.27 9.61 7.41 9.72 7.52C10.08 7.88 10.5 8.05 10.99 8.05C11.48 8.05 11.9 7.88 12.25 7.53C12.6 7.18 12.77 6.76 12.77 6.26C12.77 5.77 12.6 5.34 12.25 4.99C11.9 4.64 11.48 4.46 10.99 4.46H0.59C0.43 4.46 0.29 4.52 0.17 4.63C0.0600001 4.75 0 4.88 0 5.04ZM0 3.02C0 3.19 0.0600001 3.32 0.17 3.41C0.29 3.52 0.43 3.57 0.59 3.57H14.4C14.89 3.57 15.32 3.39 15.67 3.05C16.02 2.7 16.19 2.28 16.19 1.78C16.19 1.29 16.02 0.869999 15.67 0.52C15.32 0.17 14.9 0 14.4 0C13.91 0 13.49 0.17 13.13 0.51C13.02 0.63 12.97 0.78 12.97 0.93C12.97 1.09 13.02 1.23 13.13 1.33C13.24 1.43 13.37 1.48 13.53 1.48C13.68 1.48 13.82 1.43 13.94 1.32C14.06 1.2 14.21 1.14 14.39 1.14C14.56 1.14 14.72 1.2 14.85 1.32C14.98 1.44 15.05 1.59 15.05 1.77C15.05 1.95 14.98 2.11 14.85 2.24C14.72 2.37 14.57 2.44 14.39 2.44H0.59C0.43 2.44 0.29 2.5 0.17 2.61C0.0600001 2.72 0 2.86 0 3.02ZM14.02 13.44H16.49C16.75 12.15 17.22 10.99 17.88 9.97C18.55 8.95 19.27 8.13 20.04 7.53L20.42 5.66H14.46L14.05 7.55H17.54C15.56 9.54 14.39 11.5 14.02 13.44Z" fill="black"/>
</svg>
