<svg width="21" height="14" viewBox="0 0 21 14" fill="none" xmlns="http://www.w3.org/2000/svg">
<path d="M0 5.04C0 5.22 0.0600001 5.35 0.17 5.44C0.29 5.55 0.43 5.61 0.59 5.61H10.99C11.17 5.61 11.32 5.67 11.45 5.8C11.58 5.92 11.65 6.08 11.65 6.26C11.65 6.44 11.58 6.6 11.45 6.73C11.32 6.86 11.17 6.93 10.99 6.93C10.81 6.93 10.65 6.86 10.52 6.72C10.39 6.61 10.26 6.56 10.12 6.56C9.96 6.56 9.82 6.61 9.71 6.72C9.6 6.83 9.55 6.96 9.55 7.11C9.55 7.27 9.61 7.41 9.72 7.52C10.08 7.88 10.5 8.05 11 8.05C11.49 8.05 11.91 7.88 12.26 7.53C12.61 7.18 12.78 6.76 12.78 6.26C12.78 5.77 12.61 5.34 12.26 4.99C11.91 4.64 11.49 4.46 11 4.46H0.59C0.43 4.46 0.29 4.52 0.17 4.63C0.0600001 4.75 0 4.88 0 5.04ZM0 3.02C0 3.19 0.0600001 3.32 0.17 3.41C0.29 3.52 0.43 3.57 0.59 3.57H14.4C14.89 3.57 15.32 3.39 15.67 3.05C16.02 2.7 16.19 2.28 16.19 1.78C16.19 1.29 16.02 0.869999 15.67 0.52C15.32 0.17 14.9 0 14.4 0C13.91 0 13.49 0.17 13.13 0.51C13.02 0.63 12.97 0.78 12.97 0.93C12.97 1.09 13.02 1.23 13.13 1.33C13.24 1.43 13.37 1.48 13.53 1.48C13.68 1.48 13.82 1.43 13.94 1.32C14.06 1.2 14.21 1.14 14.39 1.14C14.56 1.14 14.72 1.2 14.85 1.32C14.98 1.44 15.05 1.59 15.05 1.77C15.05 1.95 14.98 2.11 14.85 2.24C14.72 2.37 14.57 2.44 14.39 2.44H0.59C0.43 2.44 0.29 2.5 0.17 2.61C0.0600001 2.72 0 2.86 0 3.02ZM13.41 10.26C13.41 11.22 13.66 11.99 14.16 12.57C14.66 13.15 15.42 13.44 16.45 13.44C17.4 13.44 18.18 13.15 18.8 12.57C19.42 11.99 19.72 11.23 19.72 10.29C19.72 9.65 19.5 9.12 19.05 8.72C18.6 8.32 18.06 8.12 17.4 8.12C16.67 8.12 16.1 8.37 15.68 8.87H15.66C15.99 7.71 16.54 7.13 17.31 7.13C17.56 7.13 17.75 7.18 17.89 7.27C18.01 7.36 18.09 7.49 18.12 7.68H20.23C20.22 7.37 20.15 7.09 20.04 6.84C19.92 6.59 19.78 6.38 19.6 6.22C19.42 6.06 19.21 5.92 18.97 5.82C18.73 5.71 18.48 5.64 18.22 5.59C17.96 5.55 17.7 5.52 17.42 5.52C16.8 5.52 16.24 5.64 15.74 5.88C15.24 6.12 14.86 6.42 14.57 6.77C14.29 7.12 14.05 7.52 13.86 7.97C13.67 8.42 13.55 8.83 13.48 9.2C13.44 9.58 13.41 9.93 13.41 10.26ZM15.46 10.71C15.46 10.34 15.58 10.06 15.83 9.87C16.07 9.68 16.35 9.58 16.65 9.58C16.84 9.58 17 9.61 17.13 9.66C17.26 9.71 17.36 9.78 17.43 9.85C17.5 9.92 17.55 10.01 17.58 10.12C17.62 10.23 17.64 10.31 17.65 10.37C17.66 10.43 17.66 10.49 17.66 10.56C17.66 10.87 17.55 11.14 17.34 11.35C17.13 11.56 16.84 11.67 16.49 11.67C16.18 11.67 15.94 11.58 15.74 11.4C15.56 11.23 15.46 11 15.46 10.71Z" fill="black"/>
</svg>
