<svg width="21" height="14" viewBox="0 0 21 14" fill="none" xmlns="http://www.w3.org/2000/svg">
<path d="M0 5.04C0 5.22 0.0599996 5.35 0.17 5.44C0.29 5.55 0.43 5.61 0.59 5.61H10.99C11.16 5.61 11.32 5.67 11.45 5.8C11.58 5.92 11.65 6.08 11.65 6.26C11.65 6.44 11.58 6.6 11.45 6.73C11.32 6.86 11.17 6.93 10.99 6.93C10.81 6.93 10.65 6.86 10.52 6.72C10.39 6.61 10.26 6.56 10.12 6.56C9.96 6.56 9.82 6.61 9.71 6.72C9.6 6.83 9.55 6.96 9.55 7.11C9.55 7.27 9.61 7.41 9.72 7.52C10.08 7.88 10.5 8.05 11 8.05C11.5 8.05 11.91 7.88 12.26 7.53C12.61 7.18 12.78 6.76 12.78 6.26C12.78 5.77 12.61 5.34 12.26 4.99C11.91 4.64 11.49 4.46 11 4.46H0.59C0.43 4.46 0.29 4.52 0.17 4.63C0.0599996 4.75 0 4.88 0 5.04ZM0 3.02C0 3.19 0.0599996 3.32 0.17 3.41C0.29 3.52 0.43 3.57 0.59 3.57H14.4C14.89 3.57 15.32 3.39 15.67 3.05C16.02 2.7 16.19 2.28 16.19 1.78C16.19 1.29 16.02 0.869999 15.67 0.52C15.32 0.17 14.9 0 14.4 0C13.91 0 13.49 0.17 13.13 0.51C13.02 0.63 12.97 0.78 12.97 0.93C12.97 1.09 13.02 1.23 13.13 1.33C13.24 1.43 13.37 1.48 13.53 1.48C13.68 1.48 13.82 1.43 13.94 1.32C14.06 1.2 14.21 1.14 14.39 1.14C14.56 1.14 14.72 1.2 14.85 1.32C14.98 1.44 15.05 1.59 15.05 1.77C15.05 1.95 14.98 2.11 14.85 2.24C14.72 2.37 14.57 2.44 14.39 2.44H0.59C0.43 2.44 0.29 2.5 0.17 2.61C0.0599996 2.72 0 2.86 0 3.02ZM13.26 10.44C13.26 10.96 13.34 11.42 13.5 11.81C13.66 12.2 13.88 12.52 14.16 12.75C14.44 12.98 14.74 13.15 15.07 13.27C15.4 13.38 15.75 13.44 16.12 13.44C16.63 13.44 17.1 13.35 17.53 13.18C17.96 13.01 18.3 12.78 18.58 12.49C18.85 12.2 19.09 11.88 19.29 11.54C19.49 11.2 19.64 10.84 19.74 10.46C19.84 10.08 19.92 9.74 19.97 9.43C20.02 9.12 20.04 8.83 20.04 8.57C20.04 7.6 19.77 6.85 19.24 6.32C18.71 5.79 18 5.52 17.12 5.52C16.63 5.52 16.15 5.64 15.69 5.87C15.23 6.1 14.82 6.43 14.46 6.85C14.1 7.27 13.81 7.79 13.6 8.41C13.37 9.03 13.26 9.71 13.26 10.44ZM15.31 10.5C15.31 10.35 15.32 10.16 15.35 9.92C15.38 9.69 15.43 9.41 15.51 9.09C15.59 8.77 15.69 8.47 15.81 8.2C15.93 7.93 16.1 7.7 16.33 7.51C16.55 7.32 16.8 7.22 17.08 7.22C17.35 7.22 17.57 7.31 17.73 7.48C17.89 7.65 17.96 7.92 17.96 8.27C17.96 9.23 17.79 10.05 17.46 10.72C17.13 11.39 16.72 11.73 16.23 11.73C15.62 11.73 15.31 11.32 15.31 10.5Z" fill="black"/>
</svg>
