<svg width="21" height="14" viewBox="0 0 21 14" fill="none" xmlns="http://www.w3.org/2000/svg">
<path d="M0 5.04C0 5.22 0.0600001 5.35 0.17 5.44C0.29 5.55 0.43 5.61 0.59 5.61H10.99C11.17 5.61 11.32 5.67 11.45 5.8C11.58 5.92 11.65 6.08 11.65 6.26C11.65 6.44 11.58 6.6 11.45 6.73C11.32 6.86 11.17 6.93 10.99 6.93C10.81 6.93 10.65 6.86 10.52 6.72C10.39 6.61 10.26 6.56 10.12 6.56C9.96 6.56 9.82 6.61 9.71 6.72C9.6 6.83 9.55 6.96 9.55 7.11C9.55 7.27 9.61 7.41 9.72 7.52C10.08 7.88 10.5 8.05 11 8.05C11.49 8.05 11.91 7.88 12.26 7.53C12.61 7.18 12.78 6.76 12.78 6.26C12.78 5.77 12.61 5.34 12.26 4.99C11.91 4.64 11.49 4.46 11 4.46H0.59C0.43 4.46 0.29 4.52 0.17 4.63C0.0600001 4.75 0 4.88 0 5.04ZM0 3.02C0 3.19 0.0600001 3.32 0.17 3.41C0.29 3.52 0.43 3.57 0.59 3.57H14.4C14.89 3.57 15.32 3.39 15.67 3.05C16.02 2.7 16.19 2.28 16.19 1.78C16.19 1.29 16.02 0.869999 15.67 0.52C15.32 0.17 14.9 0 14.4 0C13.91 0 13.49 0.17 13.13 0.51C13.02 0.63 12.97 0.78 12.97 0.93C12.97 1.09 13.02 1.23 13.13 1.33C13.24 1.43 13.37 1.48 13.53 1.48C13.68 1.48 13.82 1.43 13.94 1.32C14.06 1.2 14.21 1.14 14.39 1.14C14.56 1.14 14.72 1.2 14.85 1.32C14.98 1.44 15.05 1.59 15.05 1.77C15.05 1.95 14.98 2.11 14.85 2.24C14.72 2.37 14.57 2.44 14.39 2.44H0.59C0.43 2.44 0.29 2.5 0.17 2.61C0.0600001 2.72 0 2.86 0 3.02ZM13 11.21C13 11.94 13.29 12.5 13.86 12.87C14.43 13.25 15.2 13.44 16.17 13.44C16.76 13.44 17.29 13.38 17.74 13.26C18.2 13.14 18.55 12.99 18.81 12.82C19.07 12.65 19.27 12.44 19.43 12.2C19.59 11.96 19.69 11.74 19.74 11.54C19.79 11.34 19.82 11.14 19.82 10.93C19.82 10.52 19.7 10.16 19.46 9.87C19.22 9.57 18.91 9.38 18.52 9.3L18.54 9.27V9.28C18.99 9.22 19.36 9.02 19.66 8.68C19.95 8.35 20.1 7.95 20.1 7.49C20.1 7.11 20.01 6.78 19.84 6.51C19.67 6.24 19.43 6.03 19.13 5.9C18.83 5.76 18.52 5.66 18.21 5.6C17.9 5.54 17.56 5.51 17.2 5.51C16.72 5.51 16.3 5.56 15.92 5.65C15.54 5.74 15.23 5.87 14.99 6.02C14.75 6.17 14.56 6.35 14.4 6.55C14.24 6.75 14.13 6.95 14.07 7.15C14.01 7.35 13.98 7.56 13.98 7.77C13.98 8.11 14.07 8.41 14.25 8.67C14.43 8.93 14.68 9.1 15 9.2V9.23C14.44 9.29 13.96 9.5 13.58 9.84C13.19 10.21 13 10.66 13 11.21ZM15.11 10.98C15.11 10.63 15.25 10.37 15.53 10.21C15.81 10.05 16.15 9.97 16.54 9.97C16.95 9.97 17.24 10.06 17.43 10.25C17.61 10.43 17.71 10.63 17.71 10.85V10.98C17.71 11.26 17.58 11.47 17.33 11.62C17.08 11.76 16.75 11.84 16.36 11.84L16.39 11.83C16.25 11.83 16.12 11.82 15.99 11.8C15.86 11.78 15.72 11.74 15.58 11.69C15.44 11.63 15.33 11.55 15.24 11.43C15.16 11.3 15.11 11.15 15.11 10.98ZM15.87 7.91C15.87 7.59 15.99 7.36 16.24 7.22C16.49 7.08 16.79 7 17.14 7C17.44 7 17.69 7.07 17.9 7.2C18.11 7.33 18.21 7.55 18.21 7.83C18.21 7.9 18.19 7.98 18.16 8.06C18.13 8.14 18.07 8.23 17.99 8.33C17.91 8.43 17.78 8.51 17.6 8.57C17.42 8.63 17.2 8.66 16.94 8.66C16.54 8.66 16.26 8.58 16.1 8.43C15.95 8.29 15.87 8.11 15.87 7.91Z" fill="black"/>
</svg>
