<svg width="24" height="14" viewBox="0 0 24 14" fill="none" xmlns="http://www.w3.org/2000/svg">
<path d="M0 5.04C0 5.22 0.0599998 5.35 0.17 5.44C0.29 5.55 0.43 5.61 0.59 5.61H10.99C11.17 5.61 11.32 5.67 11.45 5.8C11.58 5.92 11.65 6.08 11.65 6.26C11.65 6.44 11.58 6.6 11.45 6.73C11.32 6.86 11.17 6.93 10.99 6.93C10.81 6.93 10.65 6.86 10.52 6.72C10.4 6.61 10.26 6.56 10.12 6.56C9.96 6.56 9.82 6.61 9.71 6.72C9.6 6.83 9.55 6.96 9.55 7.11C9.55 7.27 9.61 7.41 9.72 7.52C10.08 7.88 10.5 8.05 10.99 8.05C11.48 8.05 11.9 7.88 12.25 7.53C12.6 7.18 12.77 6.76 12.77 6.26C12.77 5.77 12.6 5.34 12.25 4.99C11.9 4.64 11.48 4.46 10.99 4.46H0.6C0.44 4.46 0.3 4.52 0.18 4.63C0.0599998 4.75 0 4.88 0 5.04ZM0 3.02C0 3.19 0.0599998 3.32 0.17 3.41C0.29 3.52 0.43 3.57 0.59 3.57H14.4C14.89 3.57 15.32 3.39 15.67 3.05C16.02 2.7 16.19 2.28 16.19 1.78C16.19 1.29 16.02 0.869999 15.67 0.52C15.32 0.17 14.9 0 14.4 0C13.91 0 13.49 0.17 13.13 0.51C13.02 0.63 12.97 0.78 12.97 0.93C12.97 1.09 13.02 1.23 13.13 1.33C13.24 1.43 13.37 1.48 13.53 1.48C13.68 1.48 13.82 1.43 13.94 1.32C14.06 1.2 14.21 1.14 14.39 1.14C14.56 1.14 14.72 1.2 14.85 1.32C14.98 1.44 15.05 1.59 15.05 1.77C15.05 1.95 14.98 2.11 14.85 2.24C14.72 2.37 14.57 2.44 14.39 2.44H0.6C0.44 2.44 0.3 2.5 0.18 2.61C0.0599998 2.72 0 2.86 0 3.02ZM12.82 13.34H15.28L16.92 5.4H14.47L12.82 13.34ZM17.01 10.42C17.01 10.94 17.09 11.4 17.25 11.8C17.41 12.2 17.63 12.52 17.91 12.75C18.18 12.98 18.49 13.15 18.81 13.27C19.13 13.39 19.49 13.44 19.86 13.44C20.47 13.44 21.02 13.32 21.5 13.06C21.98 12.81 22.36 12.5 22.63 12.13C22.9 11.76 23.13 11.34 23.31 10.88C23.49 10.41 23.61 9.99 23.68 9.61C23.74 9.23 23.77 8.88 23.77 8.56C23.77 7.59 23.5 6.84 22.97 6.31C22.44 5.78 21.73 5.51 20.84 5.51C19.81 5.51 18.91 5.97 18.14 6.88C17.39 7.8 17.01 8.98 17.01 10.42ZM19.06 10.52C19.06 10.36 19.07 10.17 19.1 9.93C19.13 9.7 19.18 9.42 19.26 9.09C19.34 8.77 19.44 8.47 19.56 8.19C19.68 7.92 19.85 7.69 20.08 7.5C20.3 7.31 20.55 7.21 20.83 7.21C21.1 7.21 21.31 7.3 21.48 7.48C21.64 7.66 21.72 7.92 21.72 8.27C21.72 9.23 21.55 10.05 21.22 10.72C20.89 11.39 20.47 11.73 19.99 11.73C19.37 11.73 19.06 11.33 19.06 10.52Z" fill="black"/>
</svg>
