<svg width="21" height="14" viewBox="0 0 21 14" fill="none" xmlns="http://www.w3.org/2000/svg">
<path d="M0 5.04C0 5.22 0.0599996 5.35 0.17 5.44C0.29 5.55 0.43 5.61 0.59 5.61H10.99C11.16 5.61 11.32 5.67 11.45 5.8C11.58 5.92 11.65 6.08 11.65 6.26C11.65 6.44 11.58 6.6 11.45 6.73C11.32 6.86 11.17 6.93 10.99 6.93C10.81 6.93 10.65 6.86 10.52 6.72C10.4 6.61 10.26 6.56 10.12 6.56C9.96 6.56 9.82 6.61 9.71 6.72C9.6 6.83 9.55 6.96 9.55 7.11C9.55 7.27 9.61 7.41 9.72 7.52C10.08 7.88 10.5 8.05 10.99 8.05C11.48 8.05 11.9 7.88 12.25 7.53C12.6 7.18 12.77 6.76 12.77 6.26C12.77 5.77 12.6 5.34 12.25 4.99C11.9 4.64 11.48 4.46 10.99 4.46H0.59C0.43 4.46 0.29 4.52 0.17 4.63C0.0599996 4.75 0 4.88 0 5.04ZM0 3.02C0 3.19 0.0599996 3.32 0.17 3.41C0.29 3.52 0.43 3.57 0.59 3.57H14.4C14.89 3.57 15.32 3.39 15.67 3.05C16.02 2.7 16.19 2.28 16.19 1.78C16.19 1.29 16.02 0.869999 15.67 0.52C15.32 0.17 14.9 0 14.4 0C13.91 0 13.49 0.17 13.13 0.51C13.03 0.63 12.97 0.77 12.97 0.92C12.97 1.08 13.02 1.22 13.13 1.32C13.24 1.42 13.37 1.47 13.53 1.47C13.68 1.47 13.82 1.42 13.94 1.31C14.06 1.19 14.21 1.13 14.39 1.13C14.56 1.13 14.72 1.19 14.85 1.31C14.98 1.43 15.05 1.58 15.05 1.76C15.05 1.94 14.98 2.1 14.85 2.23C14.72 2.36 14.57 2.43 14.39 2.43H0.59C0.43 2.43 0.29 2.49 0.17 2.6C0.0599996 2.72 0 2.86 0 3.02ZM13.09 11.06C13.09 11.33 13.14 11.59 13.25 11.85C13.36 12.11 13.52 12.35 13.75 12.6C13.98 12.84 14.3 13.03 14.71 13.18C15.12 13.33 15.61 13.4 16.17 13.4C17.38 13.4 18.25 13.16 18.8 12.68C19.35 12.2 19.62 11.55 19.62 10.73C19.62 10.37 19.52 10.04 19.32 9.74C19.12 9.44 18.85 9.27 18.53 9.23V9.21C18.96 9.13 19.32 8.94 19.6 8.63C19.88 8.32 20.03 7.94 20.03 7.51C20.03 7.2 19.97 6.93 19.86 6.69C19.75 6.45 19.6 6.26 19.42 6.11C19.24 5.96 19.03 5.84 18.78 5.74C18.53 5.64 18.28 5.58 18.03 5.54C17.78 5.5 17.51 5.48 17.23 5.48C16.31 5.48 15.55 5.7 14.95 6.15C14.36 6.6 13.99 7.27 13.85 8.16H15.88C15.92 7.85 16.05 7.61 16.26 7.44C16.47 7.27 16.73 7.18 17.04 7.18C17.33 7.18 17.55 7.24 17.72 7.36C17.89 7.48 17.97 7.65 17.97 7.86C17.97 8.33 17.55 8.56 16.7 8.56H16.23L15.94 9.96H16.38C17.06 9.96 17.4 10.19 17.4 10.66C17.4 10.97 17.29 11.21 17.06 11.38C16.83 11.55 16.56 11.63 16.23 11.63C15.85 11.63 15.57 11.52 15.4 11.29C15.23 11.08 15.16 10.78 15.19 10.4H13.12C13.1 10.6 13.09 10.81 13.09 11.06Z" fill="black"/>
</svg>
