<svg width="24" height="14" viewBox="0 0 24 14" fill="none" xmlns="http://www.w3.org/2000/svg">
<path d="M0 5.04C0 5.22 0.0600001 5.35 0.17 5.44C0.29 5.55 0.43 5.61 0.59 5.61H10.99C11.16 5.61 11.32 5.67 11.45 5.8C11.58 5.92 11.65 6.08 11.65 6.26C11.65 6.44 11.58 6.6 11.45 6.73C11.32 6.86 11.17 6.93 10.99 6.93C10.81 6.93 10.65 6.86 10.52 6.72C10.39 6.61 10.26 6.56 10.12 6.56C9.96 6.56 9.82 6.61 9.71 6.72C9.6 6.83 9.55 6.96 9.55 7.11C9.55 7.27 9.61 7.41 9.72 7.52C10.08 7.88 10.5 8.05 11 8.05C11.5 8.05 11.91 7.88 12.26 7.53C12.61 7.18 12.78 6.76 12.78 6.26C12.78 5.77 12.61 5.34 12.26 4.99C11.91 4.64 11.49 4.46 11 4.46H0.59C0.43 4.46 0.29 4.52 0.17 4.63C0.0600001 4.75 0 4.88 0 5.04ZM0 3.02C0 3.19 0.0600001 3.32 0.17 3.41C0.29 3.52 0.43 3.57 0.59 3.57H14.4C14.89 3.57 15.32 3.39 15.67 3.05C16.02 2.7 16.19 2.28 16.19 1.78C16.19 1.29 16.02 0.869999 15.67 0.52C15.32 0.17 14.9 0 14.4 0C13.91 0 13.49 0.17 13.13 0.51C13.02 0.63 12.97 0.78 12.97 0.93C12.97 1.09 13.02 1.23 13.13 1.33C13.24 1.43 13.37 1.48 13.53 1.48C13.68 1.48 13.82 1.43 13.94 1.32C14.06 1.2 14.21 1.14 14.39 1.14C14.56 1.14 14.72 1.2 14.85 1.32C14.98 1.44 15.05 1.59 15.05 1.77C15.05 1.95 14.98 2.11 14.85 2.24C14.72 2.37 14.57 2.44 14.39 2.44H0.59C0.43 2.44 0.29 2.5 0.17 2.61C0.0600001 2.72 0 2.86 0 3.02ZM12.89 13.44H15.36L17.01 5.45H14.54L12.89 13.44ZM16.44 13.44H23.06L23.46 11.54H19.79V11.52C19.99 11.43 20.28 11.3 20.65 11.15C21.03 11 21.34 10.87 21.6 10.77C21.86 10.67 22.14 10.52 22.46 10.33C22.78 10.14 23.04 9.95 23.23 9.75C23.42 9.55 23.59 9.3 23.73 9C23.87 8.7 23.94 8.36 23.94 8C23.94 7.44 23.8 6.98 23.51 6.6C23.22 6.22 22.86 5.96 22.43 5.8C22 5.64 21.51 5.57 20.98 5.57C20.01 5.57 19.22 5.83 18.61 6.35C18 6.87 17.63 7.64 17.51 8.66H19.58C19.58 8.28 19.69 7.97 19.91 7.71C20.13 7.45 20.44 7.33 20.84 7.33C21.14 7.33 21.36 7.41 21.51 7.57C21.66 7.73 21.73 7.91 21.73 8.12C21.73 8.44 21.62 8.7 21.4 8.88C21.18 9.06 20.77 9.3 20.15 9.6C20.11 9.61 20.08 9.62 20.07 9.64C19.18 10.07 18.63 10.34 18.42 10.47C17.63 10.94 17.08 11.53 16.77 12.21C16.61 12.57 16.5 12.98 16.44 13.44Z" fill="black"/>
</svg>
