<svg width="21" height="14" viewBox="0 0 21 14" fill="none" xmlns="http://www.w3.org/2000/svg">
<path d="M0 5.04C0 5.22 0.0600001 5.35 0.17 5.44C0.29 5.55 0.43 5.61 0.59 5.61H10.99C11.17 5.61 11.32 5.67 11.45 5.8C11.58 5.92 11.65 6.08 11.65 6.26C11.65 6.44 11.58 6.6 11.45 6.73C11.32 6.86 11.17 6.93 10.99 6.93C10.81 6.93 10.65 6.86 10.52 6.72C10.39 6.61 10.26 6.56 10.12 6.56C9.96 6.56 9.82 6.61 9.71 6.72C9.6 6.83 9.55 6.96 9.55 7.11C9.55 7.27 9.61 7.41 9.72 7.52C10.08 7.88 10.5 8.05 11 8.05C11.49 8.05 11.91 7.88 12.26 7.53C12.61 7.18 12.78 6.76 12.78 6.26C12.78 5.77 12.61 5.34 12.26 4.99C11.91 4.64 11.49 4.46 11 4.46H0.59C0.43 4.46 0.29 4.52 0.17 4.63C0.0600001 4.75 0 4.88 0 5.04ZM0 3.02C0 3.19 0.0600001 3.32 0.17 3.41C0.29 3.52 0.43 3.57 0.59 3.57H14.4C14.89 3.57 15.32 3.39 15.67 3.05C16.02 2.7 16.19 2.28 16.19 1.78C16.19 1.29 16.02 0.869999 15.67 0.52C15.32 0.17 14.9 0 14.4 0C13.91 0 13.49 0.17 13.13 0.51C13.03 0.63 12.97 0.77 12.97 0.92C12.97 1.08 13.02 1.22 13.13 1.32C13.24 1.42 13.37 1.47 13.53 1.47C13.68 1.47 13.82 1.42 13.94 1.31C14.06 1.19 14.21 1.13 14.39 1.13C14.56 1.13 14.72 1.19 14.85 1.31C14.98 1.43 15.05 1.58 15.05 1.76C15.05 1.94 14.98 2.1 14.85 2.23C14.72 2.36 14.57 2.43 14.39 2.43H0.59C0.43 2.43 0.29 2.49 0.17 2.6C0.0600001 2.72 0 2.86 0 3.02ZM13.07 10.92C13.05 11.24 13.08 11.54 13.19 11.83C13.29 12.12 13.46 12.39 13.69 12.64C13.92 12.89 14.24 13.08 14.67 13.23C15.09 13.38 15.59 13.45 16.16 13.45C16.74 13.45 17.25 13.37 17.69 13.22C18.13 13.07 18.49 12.88 18.74 12.65C18.99 12.43 19.19 12.16 19.35 11.86C19.51 11.56 19.62 11.29 19.67 11.04C19.72 10.79 19.75 10.55 19.75 10.3C19.75 9.63 19.54 9.09 19.11 8.69C18.68 8.29 18.13 8.08 17.46 8.08C16.77 8.08 16.28 8.22 16.01 8.51H15.99L16.34 7.49H19.79L20.18 5.61H14.94L13.49 10.07H15.49C15.65 9.73 16.02 9.56 16.6 9.56C16.92 9.56 17.18 9.64 17.37 9.81C17.56 9.98 17.66 10.22 17.66 10.56C17.66 10.9 17.54 11.17 17.31 11.38C17.08 11.59 16.74 11.69 16.31 11.69C16 11.69 15.75 11.63 15.58 11.52C15.37 11.41 15.25 11.21 15.22 10.92H13.07Z" fill="black"/>
</svg>
