<svg width="20" height="14" viewBox="0 0 20 14" fill="none" xmlns="http://www.w3.org/2000/svg">
<path d="M0 5.04C0 5.22 0.0600001 5.35 0.17 5.44C0.29 5.55 0.43 5.61 0.59 5.61H10.99C11.17 5.61 11.32 5.67 11.45 5.8C11.58 5.92 11.65 6.08 11.65 6.26C11.65 6.44 11.58 6.6 11.45 6.73C11.32 6.86 11.17 6.93 10.99 6.93C10.81 6.93 10.65 6.86 10.52 6.72C10.39 6.61 10.26 6.56 10.12 6.56C9.96 6.56 9.82 6.61 9.71 6.72C9.6 6.83 9.55 6.96 9.55 7.11C9.55 7.27 9.61 7.41 9.72 7.52C10.08 7.88 10.5 8.05 10.99 8.05C11.48 8.05 11.9 7.88 12.25 7.53C12.6 7.18 12.77 6.76 12.77 6.26C12.77 5.77 12.6 5.34 12.25 4.99C11.9 4.64 11.48 4.46 10.99 4.46H0.59C0.43 4.46 0.29 4.52 0.17 4.63C0.0500001 4.75 0 4.88 0 5.04ZM0 3.02C0 3.19 0.0600001 3.32 0.17 3.41C0.29 3.52 0.43 3.57 0.59 3.57H14.4C14.89 3.57 15.32 3.39 15.67 3.05C16.02 2.7 16.19 2.28 16.19 1.78C16.19 1.29 16.02 0.869999 15.67 0.52C15.32 0.17 14.9 0 14.4 0C13.91 0 13.49 0.17 13.13 0.51C13.02 0.63 12.97 0.78 12.97 0.93C12.97 1.09 13.02 1.23 13.13 1.33C13.24 1.43 13.37 1.48 13.53 1.48C13.68 1.48 13.82 1.43 13.94 1.32C14.06 1.2 14.21 1.14 14.39 1.14C14.56 1.14 14.72 1.2 14.85 1.32C14.98 1.44 15.05 1.59 15.05 1.77C15.05 1.95 14.98 2.11 14.85 2.24C14.72 2.37 14.57 2.44 14.39 2.44H0.59C0.43 2.44 0.29 2.5 0.17 2.61C0.0500001 2.72 0 2.86 0 3.02ZM13.09 11.3C13.11 11.69 13.2 12.03 13.37 12.32C13.54 12.61 13.76 12.83 14.04 12.99C14.32 13.15 14.62 13.26 14.94 13.33C15.26 13.4 15.61 13.44 15.98 13.44C16.55 13.44 17.07 13.33 17.53 13.12C18 12.91 18.37 12.64 18.66 12.31C18.95 11.98 19.19 11.61 19.39 11.18C19.59 10.75 19.72 10.34 19.8 9.95C19.88 9.56 19.92 9.17 19.92 8.8C19.92 7.74 19.65 6.93 19.11 6.37C18.57 5.8 17.85 5.52 16.94 5.52C16.01 5.52 15.22 5.8 14.58 6.37C13.94 6.94 13.61 7.69 13.61 8.61C13.61 9.27 13.82 9.81 14.24 10.23C14.66 10.65 15.2 10.86 15.87 10.86C16.23 10.86 16.57 10.79 16.92 10.64C17.26 10.5 17.5 10.31 17.64 10.1H17.67C17.55 10.58 17.36 10.98 17.09 11.32C16.82 11.66 16.47 11.83 16.03 11.83C15.74 11.83 15.55 11.8 15.44 11.73C15.32 11.62 15.23 11.48 15.2 11.31H13.09V11.3ZM15.66 8.42C15.66 8.11 15.76 7.84 15.95 7.61C16.14 7.38 16.43 7.27 16.81 7.27C17.15 7.27 17.41 7.36 17.58 7.53C17.76 7.7 17.85 7.96 17.85 8.29C17.85 8.38 17.83 8.49 17.79 8.6C17.75 8.71 17.69 8.83 17.61 8.96C17.53 9.08 17.41 9.19 17.24 9.27C17.07 9.35 16.89 9.39 16.68 9.39C16.47 9.39 16.29 9.35 16.14 9.28C15.99 9.21 15.89 9.11 15.82 8.99C15.75 8.87 15.71 8.77 15.68 8.68C15.65 8.59 15.66 8.5 15.66 8.42Z" fill="black"/>
</svg>
