<svg width="102" height="102" viewBox="0 0 102 102" fill="none" xmlns="http://www.w3.org/2000/svg">
<g filter="url(#filter0_i_282_762)">
<path fill-rule="evenodd" clip-rule="evenodd" d="M67.175 4.75586C71.0076 3.98117 73.7644 8.3564 71.4113 11.4792C69.6413 13.8283 68.6711 16.6772 68.6711 19.6842C68.6711 27.22 74.78 33.3289 82.3158 33.3289C85.3225 33.3289 88.1708 32.3589 90.5184 30.5894C93.6408 28.2359 98.0164 30.992 97.2424 34.8246C94.8577 46.633 84.4411 55.25 72.25 55.25C58.1667 55.25 46.75 43.8333 46.75 29.75C46.75 17.5593 55.3665 7.14275 67.175 4.75586Z" fill="url(#paint0_linear_282_762)"/>
</g>
<g filter="url(#filter1_i_282_762)">
<path fill-rule="evenodd" clip-rule="evenodd" d="M38.25 23.375C52.0322 23.375 64.1525 31.6418 69.4423 43.8204L69.7241 44.4886L69.9444 45.0457L70.741 44.9066C71.3377 44.8132 71.9396 44.7428 72.5456 44.6958L73.4576 44.6427L74.375 44.625C87.2847 44.625 97.75 55.0903 97.75 68C97.75 80.4458 88.0092 90.6598 75.6219 91.3404L75.0003 91.3664L74.375 91.375H36.125C35.911 91.375 35.7008 91.3592 35.4953 91.3287L35.1909 91.272L34.9945 91.2199L34.4341 91.163C17.8376 89.3098 4.97213 75.5632 4.27938 58.7992L4.25716 58.0789L4.25 57.375C4.25 38.5973 19.4723 23.375 38.25 23.375Z" fill="black"/>
</g>
<defs>
<filter id="filter0_i_282_762" x="46.75" y="4.66553" width="50.5825" height="52.5845" filterUnits="userSpaceOnUse" color-interpolation-filters="sRGB">
<feFlood flood-opacity="0" result="BackgroundImageFix"/>
<feBlend mode="normal" in="SourceGraphic" in2="BackgroundImageFix" result="shape"/>
<feColorMatrix in="SourceAlpha" type="matrix" values="0 0 0 0 0 0 0 0 0 0 0 0 0 0 0 0 0 0 127 0" result="hardAlpha"/>
<feOffset dy="2"/>
<feGaussianBlur stdDeviation="8"/>
<feComposite in2="hardAlpha" operator="arithmetic" k2="-1" k3="1"/>
<feColorMatrix type="matrix" values="0 0 0 0 1 0 0 0 0 1 0 0 0 0 1 0 0 0 1 0"/>
<feBlend mode="overlay" in2="shape" result="effect1_innerShadow_282_762"/>
</filter>
<filter id="filter1_i_282_762" x="4.25" y="23.375" width="93.5" height="70" filterUnits="userSpaceOnUse" color-interpolation-filters="sRGB">
<feFlood flood-opacity="0" result="BackgroundImageFix"/>
<feBlend mode="normal" in="SourceGraphic" in2="BackgroundImageFix" result="shape"/>
<feColorMatrix in="SourceAlpha" type="matrix" values="0 0 0 0 0 0 0 0 0 0 0 0 0 0 0 0 0 0 127 0" result="hardAlpha"/>
<feOffset dy="2"/>
<feGaussianBlur stdDeviation="4"/>
<feComposite in2="hardAlpha" operator="arithmetic" k2="-1" k3="1"/>
<feColorMatrix type="matrix" values="0 0 0 0 0.831313 0 0 0 0 0.98288 0 0 0 0 0.98288 0 0 0 1 0"/>
<feBlend mode="normal" in2="shape" result="effect1_innerShadow_282_762"/>
</filter>
<linearGradient id="paint0_linear_282_762" x1="72.0413" y1="4.66553" x2="72.0413" y2="55.25" gradientUnits="userSpaceOnUse">
<stop stop-color="#B1B1B1"/>
<stop offset="1" stop-color="white"/>
</linearGradient>
</defs>
</svg>
